/* XPM */
static char *result[] = {
/* columns rows colors chars-per-pixel */
"64 64 120 2 ",
"   c #1A1325",
".  c #1D142B",
"X  c #1F1530",
"o  c #20162F",
"O  c #21182D",
"+  c #211634",
"@  c #231934",
"#  c #291F37",
"$  c #23153B",
"%  c #261939",
"&  c #291C3D",
"*  c #2D223C",
"=  c #30243E",
"-  c #261543",
";  c #2C1E43",
":  c #2A154C",
">  c #2E1651",
",  c #311856",
"<  c #32165D",
"1  c #2F2144",
"2  c #312345",
"3  c #372942",
"4  c #392C47",
"5  c #34244B",
"6  c #392B48",
"7  c #3B2A54",
"8  c #3F2D58",
"9  c #3E3152",
"0  c #331663",
"q  c #391967",
"w  c #371668",
"e  c #39176E",
"r  c #3A186A",
"t  c #3C1772",
"y  c #3E1A72",
"u  c #3F177C",
"i  c #463657",
"p  c #493754",
"a  c #43305C",
"s  c #49355F",
"d  c #513C5B",
"f  c #41177E",
"g  c #441A7E",
"h  c #473463",
"j  c #493463",
"k  c #4E396B",
"l  c #4C4067",
"z  c #564265",
"x  c #584568",
"c  c #5D4973",
"v  c #6E5475",
"b  c #6B557E",
"n  c #705579",
"m  c #421780",
"M  c #451984",
"N  c #4A1A8B",
"B  c #4F1C93",
"V  c #521C95",
"C  c #561E9A",
"Z  c #4F2483",
"A  c #56209B",
"S  c #5A229F",
"D  c #5B1FA1",
"F  c #5D22A3",
"G  c #6121A6",
"H  c #652BA4",
"J  c #6522AC",
"K  c #692BAC",
"L  c #6C25B4",
"P  c #6C2AB3",
"I  c #702CB7",
"U  c #7127BA",
"Y  c #732ABD",
"T  c #7634BC",
"R  c #785A90",
"E  c #79608B",
"W  c #7E6491",
"Q  c #772AC1",
"!  c #7A2CC5",
"~  c #7E2EC9",
"^  c #7C34C3",
"/  c #8037C7",
"(  c #8131CD",
")  c #843BCB",
"_  c #8636D1",
"`  c #873BD0",
"'  c #8D3CD5",
"]  c #8E3CD9",
"[  c #903FD7",
"{  c #8B44D0",
"}  c #914AD5",
"|  c #9442DB",
" . c #964BDB",
".. c #9744E0",
"X. c #9A45E2",
"o. c #9F4BE5",
"O. c #A24FEA",
"+. c #A551EC",
"@. c #A957ED",
"#. c #AB56F2",
"$. c #AE5AF5",
"%. c #B15BF7",
"&. c #B35EF8",
"*. c #B877EC",
"=. c #B768F5",
"-. c #B561F9",
";. c #BD6CFC",
":. c #BC74F5",
">. c #BE7AF2",
",. c #BE75F8",
"<. c #A080B0",
"1. c #C88DF1",
"2. c #C786F9",
"3. c #CD8EFC",
"4. c #CD90F8",
"5. c #D29FF5",
"6. c #D197FA",
"7. c #DBA9FC",
"8. c #E2BBFC",
"9. c #EDD3FD",
/* pixels */
"                                                                                                                                ",
"                                                                                                                                ",
"                                                                                                                                ",
"                                                                                                                                ",
"                                                                                          . @                     v             ",
"                                                                                          . @                     v #           ",
"                                          $ X                   = x                                                             ",
"                  d O                     . .                   O O                                                             ",
"          .   O # n d *                                   .               .     .         .                                     ",
"              4 E <.W c                       .                               . ;                                               ",
"              X = W z * .         . .             . .                         . .                                               ",
"                O x 4         .         .         X X   .                                                                       ",
"              .           .         .       .     & 1       .     .   .         .     .     .                       O O         ",
"  .   . .       .   . .       . .       .         . .     .                   .                                                 ",
"              .           .                   .                     . . .               .   .             O                     ",
".   .   .         .   .       . .   . .   .     . .   .   . .   .           .     . .             O     O *                     ",
"      * 2       .     .   .   . . $   .   .   .   .   .       . .   .   .   .       .   b d   .         .           O     .     ",
"  .   X *         . .   .   .   . X .   . .         .     . .     .   .   .   . . .     p 3       O   O     .     .             ",
".       .   .   .   .     .   . . .   . . . . . . . .   . .     .     . . .           .   .   .         .   .       .       .   ",
"  . . .   .   .   .   .   . .   .   .       .   .   . . .   . .   . . 1 7 . .     .   . .     .     O     .     .     . .   O   ",
"  . . . .   .     .     .     . . . .   .   . . .   .     . - : > $   @ $ . . . . . . .   .     O     .   . .     . .         . ",
". .     . . . . . . . . . . . . .   . . . . X @ . . .   . X g F S , X   . .   . .     . . . . . . . .   .     . .   .   . .   . ",
". . . . . . . . . . . . . . . . . . . . . . 9 l   . . . X B } @.| K y . .     . .     .   .   .     . . . .       . . .   . .   ",
".   .   . .   X % . .   . . . . . . . . . . X X . . . : q { *.>.| ) H q X . . . . . . . . . . . . . . .   . . . . . .   . .   . ",
". . . . . . . . % . . . . . . .   . . . . . . . . . X y F %.3.1.| | / A $ + . . . . . . . .   .   . .   .   . .   . @ # . . .   ",
". . . . . X . . . . . . . X . . . . . . . . . X . X N ` $.#.4.1.| | ' | A r . . . . . . . . . . . . . . . . . . . . i b . . . . ",
". . . . . . . . . . . . . . . . . . . . . . . . > Z ..@.+.6.7.1.{ ] ' ' ) K t . . o . . . . . . . . . . . . . . . . @ = . . . . ",
". . . . . . . X X . . X . . . X X . . . . . . : Z T #.=.:.7.8.5.o.| ' ] [ ^ F : $ . . . . . . . . . . . . . . . . . . . . . .   ",
". X X . . X . . . . . . . X . . . . . . X . X N ^ $.$.2.7.7.9.8.-. .' | [ _ ~ N < o . . . . X . . . . . . o . . X . . . . . . . ",
"X . . . . . X . . X X . . . . X X 5 X X . X X M ^ O.6.5.7.9.6.,.&.$.+.] [ ( F N 0 . . . X . . . . . . . & j . . . . . . . . . . ",
". X . X . X . . X . X X X X . . X 1 . . . . X N ^ o.>.2.3.7.,.%.%.-.@._ ^ P C M < . . . . X . . . . X . @ ; . . . . o . . . . . ",
"X . X . X X X X . X X . X . X X X X . X X X X Z ^ ..X.$.;.%.%.$.%.&.+.! D C C M < X X X . . . . + . . X . + . . + . . . o . . . ",
"X . . X . 7 1 . . + . + . + . X . + X . X . + M Q X.X.] ( #.$.$.%.&.O.! D C V M < . X . . . . . + . X . . . X . . . X . . . . . ",
". . + X . & @ + . . X X + . + . X . X . X . X M Y ] ] ( ( X.O.#.#.o._ J D D B M < . . + . X X . # ; . X o . . @ X . . . + . . o ",
"@ . + . . X o . + . o . . o X X X . X + X . X m I [ ~ ~ ( ( X.O.+.' L C J D B m < . . X X . X . & 5 X . + . . + . . X . . X . . ",
"X X . X X X + . . + + . o o . X X X . X X + + m D Y ! ! ~ ( ( ~ Q D D C D D D m < X X . X X . + . . X X . X . . + . . + X . . @ ",
"X . X X . @ . X X X X X . + . . X X + . . + . $ r V Q ! ( ~ ~ Q G D C C C V M - $ . . X . + . + + . X X X . + . . . . X . X . X ",
"X X X X X X X X X X + X . @ + @ X X . + + X + X > e J Y ! ! ! U D C C C V M w X + . X X o . + . . X . X + . . X + + X . X . X . ",
"X X X X X X X X . + . + X X X X + . + X o X + . . + f G Q Q Q U C V V C f 0 X X X X X X @ . . + + . + . o . X X . + . X . X X X ",
"X X X X o X X X X o & 7 X $ X X . + X + X X + o + + $ r V Q Q L C V N u - X X X X X X X X X X X @ . . + . + X . + . % ; X X X . ",
"X @ + . + . @ X @ X & 5 @ X X X + + o + . o + . X + + : w J U J C B f < + X X . + + . + X X X X X X + . . X + . . + @ @ X X X X ",
"X . X + X + X X X X X X @ X X X . + + + + + X @ + X X + + M G J N m 0 X + . + o X + + . X X X X X X X + + + . X @ . + . X X + . ",
"+ + . X X X + X X X X X X @ X @ + . + . + X + . X + @ X + $ q M u : + X + + + X + + + o + X X X + . + . + . X X . X X X X X X . ",
"+ X @ X + + . @ X @ X X X X X X + + + + X + + + X X X + X + - : : $ X X . + X + o . + + 2 ; X X X + + . X + X X X X X X X X X + ",
"X X $ X . + X + X X X $ $ + X @ X X X X + X + X X + X X X $ X @ X X X X + X + X + X + X 7 5 . @ X @ . + X X + X + . . + + + o . ",
"@ @ . . @ X X + $ + X @ X X X X X X @ X X + X @ + X + + @ X X X X X $ X + + X + X + X + X + $ X + X + X + X . + + + + + . + + + ",
"X X X @ $ ; & + X X X X X @ X X @ X X $ X X X $ X + + X X X X X + $ X X + + X X + X + X $ X X X X + X + . + o + o + + . X + + o ",
"X $ + X $ 2 & + @ X @ X $ X X @ X $ X @ $ X @ X $ @ @ @ X $ @ X + X + + + X + + X + + + . @ @ X + X + X + X + + + . + . + X + . ",
"@ X $ @ + + + + + + + + + + + + + + + + + + + + o ; 5 $ $ X X $ X + + + X X + + X @ X + X X + + X + X + X $ . X X X X + X X X X ",
"X + + . + + + + X + + + + + + + + + + + + + + + + % @ + X $ @ X + + + X + % X + + X $ X X @ X X + X + X + X @ & 8 @ X @ X @ . $ ",
". $ + $ + + . $ + + + + + + + + $ o + + + + $ + + + $ + @ X @ X + + + + + + + X + + @ X $ @ + X X $ X + X + @ & 8 @ X X @ X @ X ",
"@ X @ X + + @ + + + + + + + + $ @ + + + + + + + + + + + X $ X $ X $ + + + + + + + + X X $ X + X + X + + @ X X $ X $ X $ X X $ X ",
"+ $ + + $ + + + + + + + + + + 7 7 $ + + + + + + + + + + + $ @ X + + + + @ X + + + + + + @ X + @ + + + $ X $ X X + + + + X @ X + ",
"@ X X + + + + + + + + + + + @ 5 2 @ + + $ + + + $ + + + + X X X + + X % X X + + + + + + X $ $ X + % 5 % @ X X @ X + + + $ X $ X ",
"X @ + @ + + + + + $ + + + + $ + + + + + @ + + + + X $ + + @ X $ $ X X $ @ $ X @ $ X + $ + X X $ @ ; k & X X @ X + + + + + + X @ ",
"$ X X $ + + @ + + + + + $ + + + + + $ + + + + $ + @ + + $ X $ + X X % X X $ X X $ @ X X $ X @ X X @ X @ X $ X $ + + + + + + + X ",
"+ $ + + @ + + $ + $ + + + X + + + + + $ + + + + + + @ + + + + + $ % + + $ ; X % + + + + + + X @ + + X % X % + + + + + $ @ + + + ",
"+ + + + + o $ @ + @ + $ $ @ + $ + $ + @ $ + + + @ $ + + + $ + $ X X + $ $ ; + X + $ $ + + $ $ X $ + X X X + + + + $ $ @ + + + + ",
"+ + + $ + @ k R + $ + + + + + + + + + + + + @ + + $ $ + + $ @ + $ X $ X % $ + $ + + + + $ $ + $ % X % X $ X + + + + & 5 + + + + ",
"+ + + + + $ 6 s + @ + @ + @ + $ + $ @ + + + $ $ ; @ + + + @ $ $ X % X % X + + + + + $ + @ 2 a @ + X $ X X % + X + + % & @ + + + ",
"$ + + + @ + @ + + @ + + @ $ X @ + + + + $ + $ @ ; $ + + + + + + + + + + + X $ X $ + + + X 5 h % $ X % X X @ X @ X $ X $ X + + + ",
"@ + @ + + + $ + + + $ + $ X X $ $ @ @ $ + + + + + $ $ + @ $ + $ + $ + X + % + $ + + % + + + X % X % $ + X $ $ X @ X @ X $ + $ + ",
"+ + $ + $ + + $ $ @ + @ + + @ $ + + + $ + + $ + $ + + + + + + $ $ % $ % + + + % % X + + $ % + + + + + % $ @ % X $ X + @ @ + X @ ",
"+ $ + + + + + + + + $ + + $ + + $ + + + $ @ + + + $ @ + $ + + + + + + + $ $ + + $ + + $ + X % $ + $ X X X X $ X $ @ @ $ X $ + + "
};
