/* XPM */
static char *result[] = {
/* columns rows colors chars-per-pixel */
"64 64 178 2 ",
"   c #050D14",
".  c #061017",
"X  c #081217",
"o  c #071118",
"O  c #081218",
"+  c #0C191D",
"@  c #151B1F",
"#  c #0D1C20",
"$  c #141C23",
"%  c #0F2022",
"&  c #102122",
"*  c #1D2424",
"=  c #1A2F2E",
"-  c #202727",
";  c #212827",
":  c #20252F",
">  c #242C2D",
",  c #373B2F",
"<  c #232934",
"1  c #303737",
"2  c #373C31",
"3  c #3B3F37",
"4  c #3D413A",
"5  c #4A4C3B",
"6  c #1F4143",
"7  c #204244",
"8  c #274A46",
"9  c #2E5249",
"0  c #33594E",
"q  c #275354",
"w  c #295455",
"e  c #2E5A57",
"r  c #2F5959",
"t  c #305D57",
"y  c #305A5A",
"u  c #3B6352",
"i  c #36635B",
"p  c #39665C",
"a  c #3C6C5D",
"s  c #375F60",
"d  c #3E6E60",
"f  c #414845",
"g  c #464E49",
"h  c #4F5344",
"j  c #4D544C",
"k  c #515445",
"l  c #50574F",
"z  c #545B51",
"x  c #42665C",
"c  c #416C5E",
"v  c #4A6E5A",
"b  c #41715F",
"n  c #466A61",
"m  c #496D64",
"M  c #437463",
"N  c #4B7765",
"B  c #477A65",
"V  c #4B7B66",
"C  c #4D7E68",
"Z  c #507666",
"A  c #537C66",
"S  c #527D69",
"D  c #5C7B6B",
"F  c #647F69",
"G  c #717968",
"H  c #4C8067",
"J  c #4D8269",
"K  c #52846B",
"L  c #58816C",
"P  c #56896D",
"I  c #5D8A6C",
"U  c #64806A",
"Y  c #618C6E",
"T  c #6F8E6E",
"R  c #708F6F",
"E  c #71906F",
"W  c #6A8672",
"Q  c #628E71",
"!  c #6B8A71",
"~  c #6F8B78",
"^  c #718F71",
"/  c #669273",
"(  c #6B9575",
")  c #759576",
"_  c #739975",
"`  c #7A9C77",
"'  c #779778",
"]  c #78967A",
"[  c #769C79",
"{  c #7B9C7C",
"}  c #7FA07D",
"|  c #818876",
" . c #878F7F",
".. c #8B9D77",
"X. c #95A47B",
"o. c #99A67C",
"O. c #9BA97E",
"+. c #A5A777",
"@. c #A4A778",
"#. c #A7AA7B",
"$. c #ABAE7C",
"%. c #A4B07E",
"&. c #B6B474",
"*. c #B8B676",
"=. c #B9B778",
"-. c #BCBB7C",
";. c #7D9D80",
":. c #8C9386",
">. c #949C85",
",. c #83A583",
"<. c #87A986",
"1. c #89AB87",
"2. c #93A884",
"3. c #9CAB83",
"4. c #95AD8E",
"5. c #9DAE89",
"6. c #9FB08A",
"7. c #9BB191",
"8. c #A1AE85",
"9. c #A5B282",
"0. c #AAB684",
"q. c #A3B38C",
"w. c #A9B78F",
"e. c #ABB98C",
"r. c #BEBF82",
"t. c #B2B68A",
"y. c #B6BC89",
"u. c #B5BE8A",
"i. c #A1A898",
"p. c #A3B593",
"a. c #A8B594",
"s. c #A9B994",
"d. c #ACB298",
"f. c #AEBD9A",
"g. c #B2BF92",
"h. c #BBBF91",
"j. c #B0BF9A",
"k. c #B6BDA1",
"l. c #C0BF81",
"z. c #BAC18C",
"x. c #B5C394",
"c. c #BCC797",
"v. c #B2C19C",
"b. c #BBC99C",
"n. c #BFCCA3",
"m. c #C2C285",
"M. c #C4C68A",
"N. c #C7C98D",
"B. c #C8CA8F",
"V. c #C6CD96",
"C. c #CACD91",
"Z. c #C4CD9B",
"A. c #C9CE9B",
"S. c #CED196",
"D. c #C7D19E",
"F. c #CDD29A",
"G. c #D2D59B",
"H. c #D5D89F",
"J. c #C4CFA4",
"K. c #C3CAAC",
"L. c #C4D1A5",
"P. c #C9D5A4",
"I. c #CDD7A8",
"U. c #D6DAA2",
"Y. c #D9DDA5",
"T. c #D3DCAC",
"R. c #DBDFA9",
"E. c #CCD3B5",
"W. c #DBE0A7",
"Q. c #DDE1AA",
"!. c #DAE3B1",
"~. c #E1E4AD",
"^. c #E3E6B1",
"/. c #E6EAB4",
"(. c #E8ECB7",
"). c #E7ECB8",
"_. c #EAEEB9",
"`. c #ECF0BB",
/* pixels */
"y y y r e y e r r r r r w r r r r r r r r r r r r y r r r r r r r w r r r r r r y r r r r r r r r r r w r r r r r r r r r r r y ",
"y w w w w q q q q q q q q w q q q w w q w w w q q w q q q w q q w w q q q q q q w w w w q w w q q q q q q q q q q q w w q w w y ",
"r q p M N X.X.a.f.f.q.q.q.q.q.f.f.S d a w w i i d M N p.j.s.q.q.f.j.a.q.2.B M d p i w w p M C q.q.q.q.p.j.j.j.j.d.X.X.Z d p w r ",
"y w M C I M.M.~._.(.U.U.U.U.R._.)./ C M w w d d M C P !.).^.Y.Y.)._.Q.U.A.P K M a a w w M C Q U.U.U.U.Y._._._._.^.M.B.L C M w y ",
"y w Z Y ( B.B.~./.^.U.U.U.R.R./.^.' Q S w w a a N Q / R.^.R.G.G.~.~.U.G.A.( / C a a w w S Q ` H.G.Y.Y.R.^.^././.Q.N.B.) Q C w y ",
"r q 2.C.S._.`.G.B.B.l.M.^._.^.B.N.U.Y.w.q w a a ) R.U.-.&.&.*.*.*.*.*.*.-.Y.Q.) a a w w s.Q.U.M.M.^._.~.*.*.M.B.C.U.G.(._.f.q y ",
"y q o.C.S.`._.S.N.M.l.M.^._.^.B.B.U.Y.e.q w a a ) Y.Y.-.=.*.*.*.=.=.*.*.-.Y.R.] a a q q s.W.Y.M.M.^.).~.*.*.M.N.C.U.U.).).f.q r ",
"y q 5.U.U.~.~.M.-.l.G.G./._./.U.H.^./.v.q w M C ;./.Q.5 2 2 , , , , , , 5 C.G.` B N w q v.(./.~.~.~.^.R.M.M.Q.~.^.^.^.R.R.p.w r ",
"y q q.Y.Y.R.W.l.&.r.U.U.^._.).R.Y./._.v.w w B H ,._.^.; O O O O O O O + - N.C.` J B w q v._._._._.~.~.R.S.B./._._._.).R.U.q.q r ",
"y q q.W.~.Y.Y.M.r.l.U.U.~.^.~.U.H././.v.w w B H ,.).Q.; O O O O X O X X $ M.S.' V N w q v._._./.^.R.U.R.S.S./._.).~.~.Y.U.q.q r ",
"y q f.(./.H.Y.Y.Y.Y.Y.R.B.M.m.M.m.U.Y.w.q w B H } Y.F.* O O O O O O X X * M.C.R a a w q v._./.C.B.B.B.S.`._._.`.R.&.&.G.U.5.q r ",
"r q f._._.Y.U.U.Y.Y.Y.U.N.M.m.m.M.U.W.w.q w B H } Y.G.- O O O O O O O X - M.C.R a a w q v.(./.B.B.B.B.S._.`.`._.R.*.*.G.U.q.q y ",
"y q q.Q.~././.(.(./.U.Y.U.U.U.^.^.G.C.8.q w a d ' Y.U.* X X X O X O . O - R.(.{ a a w q 8.C.G.^./.S.N.B.S.S.m.m.M.G.G././.s.w r ",
"r w 6.Y.~.`._._._.(.U.U.U.Y.R._._.S.B.%.q w a a ) Y.G.* O X O O O O . . : ^._.;.a a w q O.B.C._.`.S.N.N.N.M.-.=.l.U.U./._.f.q y ",
"y w 5.U.Y._._.~.~.R.A.S.Y.R.~./.(.S.B.O.q w a a ) U.F.h 4 4 2 , 2 , 3 5 k R./.] a p w q 3.C.S.~.~.G.B.C.S.S.M.M.B.U.U.~.~.a.q r ",
"r w ..M.C._._.l.&.&.&.&.~._./.Y.U.C.B.O.q w a a T B.B._.`.~.S.S.S.S.~._.).C.C.F w q w q w.U.U.B.N.H.U.W.`._._._./.H.U.B.N.X.w r ",
"y q ..N.C._._.m.&.&.&.&.Q.`./.U.W.B.N.%.q w a a R B.N.(._.W.B.B.B.B.W._.(.B.B.U w w w q w.U.U.B.N.H.H.W._._._.`./.U.H.B.N.X.q r ",
"r w V I ) B.C.S.G.G.S.S.W.Q.U.B.B._ Y J q w e e a A A D L S A A v x Z L L L A b a a w w S / [ H.H.^._./.R.W.S.C.C.B.N.( I N w r ",
"r w M C I m.m.F.H.H.H.H.W.W.H.M.M.Y J B q w q w t a a a c a a a r w i a a b a a a a w w M J / U.H./._./.Y.U.B.M.M.M.M.I C M w y ",
"y w p M V X.o.5.q.q.q.q.q.w.q.o.o.v u 0 6 7 7 7 8 9 9 9 9 9 9 9 7 7 8 9 9 9 9 9 9 9 7 7 0 u v q.q.j.v.g.w.w.o.o.o.o.X.V M p w r ",
"y w q w w w w q q q q w q q w w q + .     X . X   O   o . . . O o o o   . . . .   . . . . . # q q q w q q q w q w w w w w w w r ",
"r w w w w w w w w q w w w w w w w # o O O O O X X O O O O . O O O o o O O O . O . O O O O O # w w w w w w w w w w w w w w w w r ",
"y w i a a a p N H C H B a a p w w # O O O O O O O O O O O X + < O O O O O O O O O O O o O O % a a a a a C C B B B p a p p i w r ",
"y w p a a a a C K J J J n d a w w # X O O o O O O O O O O O + $ O O O O O O O O . O O O . . % a a a a c H H H H B a a a a p w r ",
"y w a M C ;.{ <.1.<.` ` _ ' Y t y % o O O O f > O O O O O . O . O O O O + j z > O O O O O O % a a ! ) ` <.<.;...` R T N M a w r ",
"y w M J / `.`.`._.(.C.C.H.Y.x.a d & O O O O  .g O O O O . O O O O O O O * K.E.l O O O O O O % d a x.U.W.`.`.W.U.G.N.N.Y J M w r ",
"r w B K ( /.(._._.~.B.B.H.Y.x.a a & O o O O   . O O O O O O O O O O O O * k.K.g O O O X O . % a a x.U.Y.).).H.G.S.N.N.Q K N w r ",
"y w 2.D.S.-.-.N.S.S.R.U././.J.a a % O O O O O O O O O . O O O O O O O O O * * + O O O O O O # w w b.).~.-.-.-.-.l.U.U.R.!.p.q r ",
"y w 5.H.G.*.*.M.B.C.R.Y./._.L.a b & O O O O O O O O O . O O O O O O O O O O O O O O O O O O # w q J.).~.*.*.*.*.l.Y.U.(._.f.w r ",
"r q p.Q.R.N.N.S.G.S.B.B.~.~.c.i i + O O O O O O O O O O O O O . O O O . O O O O O O O . O O # t t b.~.Y.l.l.C.S.G.Q.~.^.^.a.q y ",
"r q f._.(.W.R.W.W.H.*.*.G.Y.x.q w # O O O O O O O O O O O O O O . $ # . O O O O O O O . O O % a a x.Y.U.C.B./._.)._._.R.Y.q.q r ",
"y q d._.(.U.U.W.W.U.=.=.G.Y.g.q w # O O O O O . O O @ O O O O O . : $ O O O . O O O O O O O % a a c.W.U.B.B.^._.).(.(.R.Y.q.q r ",
"y q 6.U.H.=.*.H.W.Y.U.U.Y.Y.g.q w # X O O O O O O > i.$ O O O O . O O O O O O O O X . O O O % a a x.U.W.U.W.~.~.H.*.*.H.W.q.q r ",
"y q 6.U.G.&.&.G.Y.R.R.R.Y.U.g.w w # O O O O O X O + 1 + O o O O O O O O O O O O X + : O O O % a a x.U.W.W.U.~.~.H.&.&.H.W.9.q r ",
"y q o.C.C.l.l.H.W.~.^.^.G.C.0.i i # O X O X O O O O O o X X O X O O O O O O O . O O $ O O . $ a a 0.S.S.~.^.H.H.G.m.m.Q.~.s.q r ",
"r w X.m.M.M.M.U.W.W.`._.C.M.8.a a & O O O O O O O O O O O O O O O O O O O O O O O O O O O O % a p %.M.C.`.`.G.C.B.B.B./.).f.q r ",
"y q ..u.u.N.N.U.W.~.(.(.C.N.9.a a # O O O O X O O O O O X O O O O . O O O O O O O O X o O O % a p 9.M.C.).).G.B.C.C.C.!.!.p.q r ",
"y w N K / U.U.^._.(.Y.Y.U.Y.g.w w # O O O O O O O O O O O O O O O O O O .   . O O O O O O o # w q x.Y.Y.C.B.C.B.G.).).( K B w r ",
"e w M K / U.U./.`._.Y.Y.Y.Y.x.q w # O X X O . X X O O X O O X O O O O O $ :.< O O O o O o O # q q x.W.U.C.B.B.C.G._._.Q H M q y ",
"y q a M V ) ) ] ..` ) ) ! W D w w # O O X O G | z X X X O O O O O O X . @ f $ O o O O O O O % w q D ! ! E E E E ^ ~ ~ a p t q r ",
"y w p a d d a d a a d a e w w w w # O O O + d.K.| . O O O O O O O O O X O O O O O O O O O O + w w e w e d a a a p r w w w w w y ",
"y w i d p a p a a a a a e w w w w # O O O O >.d.G . O O O O O O O O O O . O O O O O O X O O % q w q w r a a a a i w w w w w w r ",
"y w w w e w w w w w w w w w w w w # O O O O O + O O O o O O O O . . O O O O O O O O O O O O + w w w w w q w w w w w w w w w w y ",
"y w w w q w q q q w q w w w q w w # O O O X X . O O O O X O X O $ + . O X O O O O O O . O O % q w q q q q q q q q q w w w w w r ",
"r q a B K 3.3.3.O.9.v.v.s.q.2.M B & O o O X X O O O O O X O O X $ O O O O O O O O O O O O O % B B 7.v.v.e.w.w.a.s.v.v.S M p w y ",
"y q M K Q B.C.B.V.S.).).W.U.x.J J & O . O O X O O O O O X O O X O O O O . O O . O O O O X O & K J L.)./.Y.Y.Y.U.Q._.).Q C M w y ",
"y w K ( [ S.C.C.C.S.~.~.W.Y.Z./ / = % % & & $ % & & % & % & % % $ $ % % % & & % % % % % % % = ( ( P./.Q.G.H.R.Q.Q./.^._ Y N w r ",
"y q f.`.(.U.U.S.C.B.*.&.~._._._._.m w y a a d a d d a a a a a a d a a a a d d d d d a d e w m _.).F.B.M.*.*.~._.^.B.C.M.M.X.q y ",
"y w f._.(.U.U.C.C.B.*.*.~._._._._.m w y a a a a a a a a a a a a a a a a p a a a a a d d y w m (.`.F.M.M.*.&.~.`.~.B.B.M.M.X.q t ",
"y q 3.S.G././.G.C.B.M.N.~._.~.m.l.x w r y t O.0.z.L.n.x.x.u.0.0.0.0.0.0.0.L.L.b.x.q.t e e w x G.G.S.B.B.G.H.U.W.Q.^.~.H.U.5.q e ",
"r q X.N.C._._.G.C.C.C.C.^.(.~.*.=.a w w w e u.B.H.(.).W.U.G.C.B.N.N.M.B.C.)./.Q.H.V.w w w w x S.B.S.C.S.U.U.R.U.W._.(.R.Y.q.q r ",
"y q 2.B.S.~./.G.C.C.S.S.~./.~.=.-.x w e e t u.S.C.L.L.e.t.9.@.+.+.+.+.+.#.L.J.T.Y.D.i e w w x S.C.S.S.S.H.H.H.U.W.(.).Q.Y.q.q y ",
"r q q.U.U.B.C.B.B.S.`._.~.Y.H.B.C.x w e a d Z.U.5.q q O o .   O O . . X + q q p.).T.M d i q x C.B.^._.^.M.M.H.W.R.Y.R.)._.f.q w ",
"y q 5.U.G.C.B.C.C.S._.`.~.H.H.B.B.x e e d d Z.Y.5.q w + O O o O O O O O O q q a.).T.d a y w x B.C.^.`.^.m.M.H.U.Y.Y.Y./._.f.q r ",
"y q s./.~.-.=.Y././._._.M.-.M.H.H.x w e a b T./.p.q q + O O O O O O O O + q q 5.Q.D.M a y w n /.^.B.l.M.^.^./.).Q.C.B.Y.R.q.q r ",
"y q s._.^.=.&.Q._._._.`.l.*.l.Y.W.n w e a b T._.p.q q O O O O O O . O O + q q 5.W.D.b a y w M `.`.M.*.l._._._.(.Q.N.M.U.U.q.q y ",
"r q a./.~.l.r.R./././.~.m.-.m.Y.U.n w e d d T./.p.q w O O O O O O O O O + q q 2.H.V.a p e w n Q.^.M.l.M._._.Q.R.U.m.m.H.H.8.q y ",
"y q q.U.Y.U.U.R.~.H.B.B.B.B.C.Y.U.n w r a b D.W.5.w w O O O O O O O O O + q q X.B.u.w w w w x B.M.H.U.Y._._.l.*.&.&.*.G.U.q.q y ",
"y q 5.U.U.U.U.Y.Y.H.B.B.B.B.C.Y.U.d w r d b D.W.5.q w @ O + O O O X X O + w w X.V.u.r w w q n B.M.H.U.Y._._.l.&.&.*.*.G.U.6.q y ",
"r w C Q ) N.N.C.B.S./.(././.P.Y Q i w r a b z.C.A.I.I.A.J.h.$.$.$.$.y.z.z.c.c.Y.).I.w w w w e I Y P././.R.~.B.M.M.M.M.( Y Z w r ",
"y w M J I M.M.M.N.C._._._._.P.C J r e e a n y.B.G._.).).).R.N.N.N.N.F.U.Y.U.U.^.).T.r w w w e C C L././.R.Y.C.N.N.N.N.I H M q r ",
"y w p M C X.X.X.o.3.f.f.j.j.4.M d r w e p p ..X.8.j.j.j.j.q.X.X.o.X.5.q.q.q.q.f.v.7.w w w w r M M 4.f.f.q.p.o.X.X.X.X.V d a w y ",
"y w w w q q q w q q q q q q q q q q w w w w w q w q q q q q q w w q w q q q q q q w w r w w w w w q q q w q q w q w w q w w w r ",
"d y r r r s r y y r y y r y y r r s y y y r y y y y y y y y y y r r y y y y y r y y y y y r y y y y y y r y y y y r y y r y y s "
};
