/* XPM */
static char *result[] = {
/* columns rows colors chars-per-pixel */
"64 64 240 2 ",
"   c #181223",
".  c #191223",
"X  c #191323",
"o  c #191124",
"O  c #191224",
"+  c #191324",
"@  c #191225",
"#  c #191325",
"$  c #1A1224",
"%  c #1A1324",
"&  c #1A1225",
"*  c #1A1325",
"=  c #191226",
"-  c #191326",
";  c #1A1226",
":  c #1A1326",
">  c #1B1326",
",  c #1A1227",
"<  c #1A1327",
"1  c #1B1327",
"2  c #1A1427",
"3  c #1B1427",
"4  c #1A1228",
"5  c #1A1328",
"6  c #1B1328",
"7  c #1B1329",
"8  c #1B132A",
"9  c #1C1328",
"0  c #1C1329",
"q  c #1C132A",
"w  c #1C132B",
"e  c #1B1428",
"r  c #1B1429",
"t  c #1B142A",
"y  c #1C1428",
"u  c #1C1429",
"i  c #1C1529",
"p  c #1C142A",
"a  c #1D142A",
"s  c #1C142B",
"d  c #1D142B",
"f  c #1D152B",
"g  c #1E152B",
"h  c #1C142C",
"j  c #1D142C",
"k  c #1D152C",
"l  c #1D142D",
"z  c #1D152D",
"x  c #1E142C",
"c  c #1E152C",
"v  c #1E142D",
"b  c #1E152D",
"n  c #1F172C",
"m  c #1F162D",
"M  c #1D142E",
"N  c #1D152E",
"B  c #1E142E",
"V  c #1E152E",
"C  c #1F152E",
"Z  c #1E142F",
"A  c #1F142F",
"S  c #1E152F",
"D  c #1F152F",
"F  c #1F162E",
"G  c #1F162F",
"H  c #1E1530",
"J  c #1F1530",
"K  c #1F1531",
"L  c #1F1630",
"P  c #1F1631",
"I  c #1F1632",
"U  c #20152F",
"Y  c #20162F",
"T  c #21182B",
"R  c #21192C",
"E  c #21182E",
"W  c #22182F",
"Q  c #201530",
"!  c #201531",
"~  c #201630",
"^  c #211730",
"/  c #201631",
"(  c #211731",
")  c #201532",
"_  c #211532",
"`  c #201533",
"'  c #211533",
"]  c #201632",
"[  c #211632",
"{  c #211732",
"}  c #201633",
"|  c #211633",
" . c #211733",
".. c #221733",
"X. c #211534",
"o. c #211535",
"O. c #211634",
"+. c #211734",
"@. c #211635",
"#. c #211735",
"$. c #221634",
"%. c #221734",
"&. c #231734",
"*. c #221635",
"=. c #221735",
"-. c #231735",
";. c #211636",
":. c #221636",
">. c #221736",
",. c #231736",
"<. c #231737",
"1. c #201831",
"2. c #231832",
"3. c #231932",
"4. c #221A32",
"5. c #241B31",
"6. c #241933",
"7. c #241A32",
"8. c #221834",
"9. c #231834",
"0. c #221934",
"q. c #231934",
"w. c #231935",
"e. c #231837",
"r. c #241934",
"t. c #241A35",
"y. c #251936",
"u. c #241837",
"i. c #251A37",
"p. c #261C36",
"a. c #291F37",
"s. c #241738",
"d. c #241739",
"f. c #241838",
"g. c #251838",
"h. c #251938",
"j. c #251839",
"k. c #251939",
"l. c #261839",
"z. c #261A38",
"x. c #271B38",
"c. c #25193A",
"v. c #261A3A",
"b. c #271B3A",
"n. c #261A3B",
"m. c #271A3C",
"M. c #281B3B",
"N. c #291E39",
"B. c #281C3B",
"V. c #281B3C",
"C. c #291B3C",
"Z. c #281B3D",
"A. c #28193E",
"S. c #2A1B3F",
"D. c #291C3C",
"F. c #291D3C",
"G. c #281C3D",
"H. c #291C3E",
"J. c #2A1D3E",
"K. c #2B1D3F",
"L. c #2B1E3E",
"P. c #2B203B",
"I. c #2C223A",
"U. c #2F233F",
"Y. c #30243E",
"T. c #2A1B42",
"R. c #2B1E40",
"E. c #2B1E41",
"W. c #2C1E40",
"Q. c #2C1F41",
"!. c #2C1D42",
"~. c #2C1C43",
"^. c #2C1F42",
"/. c #2D1F43",
"(. c #2C1C44",
"). c #2E1E45",
"_. c #2E1F45",
"`. c #2C2040",
"'. c #2E2143",
"]. c #2E2044",
"[. c #2F2144",
"{. c #322640",
"}. c #302345",
"|. c #302146",
" X c #312147",
".X c #312247",
"XX c #372940",
"oX c #372941",
"OX c #372943",
"+X c #362944",
"@X c #392C47",
"#X c #322349",
"$X c #32224A",
"%X c #33234A",
"&X c #32224B",
"*X c #33224B",
"=X c #33244B",
"-X c #342549",
";X c #37274B",
":X c #36234F",
">X c #35254D",
",X c #37274F",
"<X c #392B48",
"1X c #382850",
"2X c #392952",
"3X c #3B2953",
"4X c #3D2B56",
"5X c #3C2C55",
"6X c #3E2C57",
"7X c #3F2D58",
"8X c #3F3150",
"9X c #3C3153",
"0X c #402D5A",
"qX c #463657",
"wX c #493754",
"eX c #43305C",
"rX c #49355F",
"tX c #513C5B",
"yX c #473463",
"uX c #493463",
"iX c #483864",
"pX c #4E396B",
"aX c #503E61",
"sX c #503966",
"dX c #4C4067",
"fX c #554164",
"gX c #564366",
"hX c #584568",
"jX c #5C4971",
"kX c #5D4974",
"lX c #6E5475",
"zX c #6B557E",
"xX c #705575",
"cX c #705579",
"vX c #735B86",
"bX c #785A90",
"nX c #79608B",
"mX c #7E6490",
"MX c #7E6492",
"NX c #A080B0",
/* pixels */
"O O O O O O O + O O O O O O O % O O O O + O O O O O O $ . O O + O % * + + O O O O O O + O O O O + O + .   . . O O   . . O . + . ",
"+ O O O O O O O + O O O % O O O # O O + O O O O O O O O O O O $ + O + O O O O O O O O O O O + O O + O O . O . O O O O + + + O O ",
"O O + @ : O O + O # + O O O O # @ + O O + O . O O O O O O O O O O O + O O O O O O O O O % O O O O O . . O O . . O O + + + . . X ",
"O O O 9 y.: $ @ # @ @ O @ O O @ O % O + O O O O O O O O + O O O * + @ O @ # + O O O O O % + X O + + O + O O O O O . . O O + + . ",
"O % # & u + O @ @ # & O O # O O * O @ @ + O + O O O O @ @ # # @ O * + O O O O O O O O O @ f 2.+ O + + + O O O O T xXXXO % O . + ",
"+ O O O O O @ @ @ * * & # @ @ # # @ @ @ # 3 1 @ & @ @ @ @ @ O # 5.I.O # @ O @ @ # @ O # @ c r.* + + O + O O O . R lXoX% O . O . ",
"O O @ O @ @ & @ : : : : - * @ @ @ @ @ & @ x.6.: @ @ # * # * @ * 8XjXo @ @ @ @ @ @ @ * O @ * @ + O @ O # O + + O O O O + O O O + ",
"@ @ @ # # & & * 3 gX+X: : @ : = @ @ * * * a u * @ : & # * # : * n 7.@ @ @ @ @ @ # @ @ * # @ # & # O @ @ @ @ + O + O O * O O O + ",
"@ & * & # : : E Y.nXaXa.: : : : = ; & : : : ; & * : & @ @ ; : : ; : * : = ; ; < a ; @ * & : & * O # @ & # # O O # @ O * + + O O ",
"@ # * & * : : <XvXNXMXkXe : ; ; : < ; ; = ; : : ; = ; : = = = : ; : : & : : : d C.y ; * * : & & & @ * @ @ @ O * * % & @ % + O O ",
": * : ; : : : W {.mXfXP.3 ; < ; < < : ; ; ; ; ; = : < ; = ; ; ; : ; : : : - = 1 d : ; : ; : = ; # * * # * @ # * * # # O @ * # @ ",
"* ; : : ; ; : : i hX@X< > 1 < , < < < : < ; ; : < ^ q.< < < < : : ; : ; < : ; < : : : ; : : @ ; & # # & * * * * # * u g # & * & ",
": : ; < : : : < < < 1 < 1 < < < < < 5 < : < < < , F.[.< , < < < : < < < : , ; : : : : : : : : : : : : : : * * * : : U &.* * * * ",
": : : < < , : 1 1 1 < < < < < < < , < 1 < < < < < < < < < < , , < < < 1 < < < : < ; : : < : : : : : : : : : - * # : : : & * # * ",
"< : : < : < , < 1 < < 1 2 < < < 1 < < , < < < < < 1 1 < < < < 1 < < < < 1 < < < < < < 1 < < < : : : : : 6 C ; : : : * * * : : : ",
"< < 1 1 < < 1 < 6 < < < 6 1 1 < 5 < 5 5 5 4 6 < 6 5 5 5 6 5 5 1 1 1 < 5 6 5 6 < < < 1 1 = < < < < < < < x l.1 : : : : : : : * : ",
"6 1 6 r.-X6 1 6 6 6 6 6 6 6 6 6 ~ V.e 7 6 6 6 5 6 6 6 6 6 6 6 6 1 6 e e e e e 6 6 6 6 ; cXtX1 e 3 e 1 1 1 3 3 > 1 : 3 > : 1 : > ",
"6 < 6 m x.6 6 6 6 6 e 6 6 6 6 6 c ..6 6 6 6 6 6 7 6 6 6 6 6 6 6 e r 6 r e e 6 6 6 6 6 5 wXOX6 1 1 1 6 1 1 < 1 1 1 3 1 1 < < < 1 ",
"6 6 1 6 6 6 6 6 6 6 6 6 6 7 6 6 7 7 7 6 7 r 7 6 e u 7 6 7 7 6 7 7 6 7 c Y r 6 6 6 6 6 7 e 6 6 e 6 6 e 6 6 < 1 < < 1 < 1 1 < 3 1 ",
"r r 6 7 0 6 6 7 7 7 7 e 6 7 7 7 p 0 7 7 r u 0 7 r 7 r 7 7 7 7 7 7 7 u }.5X7 7 e 7 7 9 7 7 e 7 6 6 e 6 6 6 6 1 5 1 6 6 6 6 < 6 1 ",
"0 7 0 7 0 0 7 u 7 7 0 r q r u 0 p p p 7 r p p q u 0 p 7 7 8 p r r p p ( t.q 7 7 7 u r r u u 7 0 7 0 r 7 e 6 7 6 e 7 6 6 6 e 6 9 ",
"0 p 8 p t q p p p p p p p q p p p q q q q p 4.p.p p p q q p p p p p p p p p p q q p 8 u q p 7 7 q r u 7 7 7 e 7 6 7 r 7 7 7 6 7 ",
"p p p p p p p s s p s p p p p p p p p s p d 9XdX7 s p p p s q s s s q s s p p p t q q 8 q p 8 p 8 0 t p 0 u u 7 7 p p p 0 r 7 u ",
"p p p q p s p D M.j s p s d s s s s p q w p 1.0.s p p q s s 8 s s s s s w p p p s p s q p p 8 q 8 p p p p u t t 7 q u r 7 7 0 u ",
"s s s s s d d F z.j s s s d s s s h d d s j d j j d d s s s s d s s s s d w s s s s d s w p q p p p w p p p q p p p 3.N.s q p p ",
"w w j d j j s j j j j j j j h j j j j j j j j d j h j d j j s d s s s d d d d s s s d s s d s w s s s s s p p p s d qXzXk s p q ",
"s j j j j j j j j j k j j j j j j k j j j j l j j j j j j j j h j j d j j j h j j j j j s s s s s s d d s s d s s s p.U.d p s q ",
"j j j j j l j l j z l j j j j l z j j j j l z j l l l j l j j l j d j j ~ `.V h l j j j d j s h d j d h d d w d d d d d d j s p ",
"j l b z l l l l z l l v l z l b z b l b b v l v b l z j l z l b l l l j i.iX{ z z j j j j j j h k j k d j V h j k j j j j j s d ",
"v l v v v l v l z l B l b v l V 8.$XG V b V v v b l z v b b b l l b l b M G b b z l j l l l l h j j j l L.yXV j j j j j j j s j ",
"z N V b v B v V V B V V V V V V / H.V B V V v B B V V v b V v l b v b v z l l b v v l l z b l l j l b b 9.'.V j j j c j j j k k ",
"V V V V V ~ S S V V S V V V V S V S V V V V V V S V V V V V V V V V V V V b v b b V B v v b b z b j b v v V v j v j l l b j l z ",
"V V V S V 1XQ.G V D S D D C V V S D V S V V V V V D S V V V B V B N V V V V V M v b V V l v V b v V V v z b b b b v l b l z z j ",
"V S D S S B.w.D V D S S D D D V V D S S S V S S S S S D S S D S B B V S V V B B V B V B V M V V b.^.b V b b V B v V v b v b l b ",
"S S D S D D D D S S D D D D Z D S S S D D S D B D S Z V D D S D S S C A S V S S V B V V V V B V J..XV B V V B B V B B V v V z v ",
"S D D D D J D D D D Q D D D D D J D D J J D D H D D J D D D D D D D D D D D S D S D S S S S V D C V D D V S B V V V V V N b V V ",
"G D J D D D L D H D J J D J D J J J J D J J J J J J J L K.R.L J J J J J J D J D D S D S D D D D D V S S D C C V V B V V V V V V ",
"J L J J J J J J J J Q L ! Q Q L J J L J Q J L J J J J L /.].Q L L L U J J J J J J S D J D J D D D S S S S V D V D D V V V V V V ",
"L J J J L J J L J ~ J J ~ L J J L J / J Q K J J L J ~ / / / J L K J J J J J J D J J J J L L D D D D J D D D S S S D D D D S D S ",
"J J J L ~ J L L L / J.2X{ ! L P P / P ! / P ! ! J ! P / / / J J L ! J J J J J J L J L J J J J J L D D D S D S D D D g.S.J S D S ",
"P / / L ! P / / / / D.>X ./ / / / / / / ! ! / / / / / / / / / ! K / J L / J J L / Q J Q J L J J J L J J J J D D J J %.u.L D D J ",
"K / / / L ! J ! / / / / ] / ! / / / / K / / ! / ] / ] ! ! / ] ! P K / K ! J / / K / / K K P K J J J J J J L J J L J J D J J D D ",
"/ ! / P ! K / / ! ] / ] ] / / / ] ! ] / ! ] / / ) ! ] / ] ] ) ] ] ] ! / / ! ! ! ! / / ! / / / K / ~ / J J L J J J J J L J J J J ",
"! / ] / / / / / I / ) / ] ] / / ] ] / ) ] ) ] ] ) ] ] ] ) / ] ] / / K ] ! ) ) ] / / ! ] .XW./ / P P P L K L J L J L J J J J J J ",
"] / ) ] / ] ] ] ] ] ] [ ] [ ] ] ] ] ] ] } } ] ] ] ) ] ] ] [ ] ] ) ] ] ) ] ] ] ] ] ] ] ] 4X=X] / K / / ! / K ! K Q J J / / Q / J ",
"[ ] [ ] ] ] ] [ [ [ ] | [ ) ] ] ] ) ] } ] ] ] ] ] } | ] [ ] ] ] ] [ [ ] _ ] ] ] ] ] ] ] ] ] ] ! ] / ) / / K ! K / / / K K ! ! ! ",
"] ] ] ] | _.m.| | } ] ] ] | ] } ] | ] | } } } | | | | | | | | ] ] } } ] _ ] ] ] ) ] ] ] } ) ] ) ] ) ) / / P / ] / ! ! K ! / ! ! ",
"| | ' | | &XH.| | } } | | } | | } | | | | | | | | ,.u.| | | | } | } | | | } [ ] } ] } | [ ] ] ] ] ) ) ) ] ) ! ] / ] / / / K K K ",
"| } | | | | | | | | | | | | | | +.O.| | | O.| | | ).*XO.O.O.| | ` | | ] | | | | | | } _ | ] | ] ] ) ] ) ] ] ] / / ] [ [ ] / / ! ",
"| | } | | | | O.} O.O.| O.O.| O.O.O.O.| | O.O.| O.k.c.O.O.O.| | } | O.} | | } } | } } [ ] ] ] ] ] ] ] ) ] ] ] G.6X=.] [ ] ] ] ) ",
" .O.| O.O.| } O.| | O.O.O.O.O.O.O.| O.O.O.O.O.O.$.O.$.+.O.O.| O.| O.| | O.' O.} | | | } | | | } } } } [ | [ | J.0X=.} ] ] ) [ } ",
"| | O.O.$.' | O.| O.O.O.O.O.O.=.=.O.+.$.O.O.O.O.+.O.O.O.O.O.O.O.O.O.| O.O.| O.O.| | | } O.O.| | | } } | | ] | | | | | | } } | ) ",
"O.O.O.$.$.O.| O.O.O.O.O.O.=.O.7X3X@.O.$.O.O.$.O.O.+.O.O.O.O.O.O.O.| O.$.O.O.O.O.O.O.| | O.O.| | | O.O.| | [ [ } | | | | | | | [ ",
"$.+.O.%.O.O.$.O.O.O.O.O.$.O.$.%X X*.$.O.@.$.*.$.@.*.O.O.@.$.O.O.O.O.O.+.O.#.O.O.O.| O.O.O.O.O.O.| v.,Xh.| O.} | } | | | | | | } ",
"O.O.$.O.O.O.O.$.O.@.O.$.*.$.$.@.*.@.O.O.O.$.@.O.o.@.O.O.O.@.X.@.O.O.O.O.O.*.O.O.$.O.O.O.$.O.O.O.+.E.pXZ.O.O.| | O.O.O.| | | | | ",
"$.O.O.$.O.O.#.$.@.@.O.O.*.O.O.O.$.=.*.*.@.*.@.@.@.=.*.O.@.@.*.*.O.O.O.O.O.@.O.O.@.O.O.O.@.O.O.O.O.%.>.%.O.O.| | O.O.O.O.| O.| | ",
"O.=.$.O.%.$.*.@.*.*.*.*.*.O.*.$.=.=.O.@.@.@.#.*.*.*.=.@.*.@.*.@.@.*.O.@.<.A.>.=.@.*.*.O.*.*.O.O.O.$.%.+.+.+.O.+.O.O.+.+.+.| O.O.",
"O.@.@.O.*.O.e.h.=.@.=.*.*.#.*.@.@.@.*.*.*.*.*.*.=.*.@.*.*.*.@.@.@.@.*.*.s.(.<.@.*.@.*.*.$.*.@.O.O.O.+.O.O.O.O.O.$.$.,.u.O.O.O.O.",
"@.@.$.*.=.-.sXbX*.=.*.*.=.@.@.*.@.=.@.*.O.*.>.@.*.=.=.*.*.*.*.*.*.*.*.*.=.>.*.@.*.O.*.*.*.*.+.=.*.O.$.$.O.O.O.O.$.$.!.:X+.O.O.O.",
"@.*.@.*.@.=.;XrX@.=.@.=.*.=.*.@.*.=.*.*.*.*.@.<.T.d.*.=.*.@.*.*.*.=.@.*.*.*.*.*.@.@.*.*.>.|.eX,.*.O.$.$.O.+.O.@.$.O.f.n.#.O.O.$.",
"*.*.$.*.=.#.=.=.*.=.*.*.=.@.@.@.*.*.=.*.@.*.@.<.~.j.*.=.*.*.=.*.*.*.*.*.*.*.:.@.*.*.*.*.=.#XuXe.@.%.=.$.@.O.O.*.O.O.O.#.#.O.O.O.",
"*.*.*.$.*.*.*.@.*.*.*.=.=.@.*.=.*.:.*.*.:.*.*.*.:.=.*.:.@.*.:.*.*.:.*.*.*.=.*.:.@.*.=.*.*.*.>.=.@.*.*.*.O.$.O.@.*.#.@.*.$.O.O.$.",
"=.*.*.*.@.@.@.=.=.=.@.=.*.*.*.*.:.*.:.:.:.*.*.:.:.:.*.*.*.*.:.:.*.>.:.:.:.:.*.=.@.*.*.*.>.>.>.=.*.*.*.=.$.=.*.@.%.*.=.=.=.*.O.O.",
"*.*.@.=.*.*.@.*.*.*.*.*.*.:.*.:.:.:.=.:.@.*.@.;.:.>.:.*.*.*.:.>.*.:.:.:.:.:.:.:.>.*.:.:.*.*.*.*.*.*.#.*.@.@.*.@.*.=.=.=.*.@.=.$."
};
