/* XPM */
static char *adfe14210ecc43c1bae5181a2c4545f0GJHohwjEPEEaMEGr[] = {
/* columns rows colors chars-per-pixel */
"64 64 182 2 ",
"   c #171324",
".  c #1A1225",
"X  c #1C142B",
"o  c #1E192D",
"O  c #1F1530",
"+  c #1F1A30",
"@  c #20162E",
"#  c #211A2E",
"$  c #211633",
"%  c #231B33",
"&  c #2A1E34",
"*  c #261B39",
"=  c #291C3C",
"-  c #13352C",
";  c #1C3B2E",
":  c #153428",
">  c #1F2C35",
",  c #183731",
"<  c #1B3C33",
"1  c #252134",
"2  c #2D2135",
"3  c #212E36",
"4  c #272239",
"5  c #2B233B",
"6  c #2C2C3A",
"7  c #33263D",
"8  c #312E3E",
"9  c #223335",
"0  c #293737",
"q  c #223A34",
"w  c #25353A",
"e  c #2A363D",
"r  c #27393D",
"t  c #2A3A3D",
"y  c #1B4334",
"u  c #1E4E33",
"i  c #1E5032",
"p  c #204637",
"a  c #214E35",
"s  c #264A39",
"d  c #2B4D3D",
"f  c #32443F",
"g  c #2A573D",
"h  c #2B593D",
"j  c #21513B",
"k  c #2C6636",
"l  c #2F6B35",
"z  c #2C663A",
"x  c #2E6939",
"c  c #316C37",
"v  c #336D3D",
"b  c #35713D",
"n  c #38753A",
"m  c #2D1E42",
"M  c #2C2340",
"N  c #322442",
"B  c #352A43",
"V  c #342549",
"C  c #36294B",
"Z  c #3B2D48",
"A  c #2A3E41",
"S  c #353341",
"D  c #353943",
"F  c #3B324B",
"G  c #3B3E48",
"H  c #41314D",
"J  c #453552",
"K  c #483757",
"L  c #473857",
"P  c #4B3A5B",
"I  c #4A3860",
"U  c #523E63",
"Y  c #2C4144",
"T  c #3E424B",
"R  c #3D4E4E",
"E  c #354B45",
"W  c #335E45",
"Q  c #3D504F",
"!  c #385846",
"~  c #3D4E52",
"^  c #3D5151",
"/  c #2F6545",
"(  c #316545",
")  c #3A6247",
"_  c #326941",
"`  c #356448",
"'  c #396349",
"]  c #3A6B49",
"[  c #387345",
"{  c #3D7A44",
"}  c #3D744A",
"|  c #4B4B5A",
" . c #494954",
".. c #58445F",
"X. c #425355",
"o. c #4F5458",
"O. c #53585E",
"+. c #44694B",
"@. c #407F46",
"#. c #407E4A",
"$. c #456850",
"%. c #4B6855",
"&. c #5A4462",
"*. c #504F61",
"=. c #554366",
"-. c #545863",
";. c #565D63",
":. c #565566",
">. c #675178",
",. c #6E587F",
"<. c #5A6E65",
"1. c #3F8046",
"2. c #438247",
"3. c #46854C",
"4. c #49854D",
"5. c #4D8A4E",
"6. c #47894B",
"7. c #4D8754",
"8. c #4E8A52",
"9. c #518C56",
"0. c #508A58",
"q. c #528759",
"w. c #549456",
"e. c #589656",
"r. c #579956",
"t. c #599957",
"y. c #569459",
"u. c #59955A",
"i. c #579858",
"p. c #5A9A5A",
"a. c #609C5E",
"s. c #5FA05E",
"d. c #5F9C60",
"f. c #5D9361",
"g. c #639E63",
"h. c #6B9B6D",
"j. c #6B9871",
"k. c #749E75",
"l. c #739E7A",
"z. c #66A165",
"x. c #6CA56B",
"c. c #6BA869",
"v. c #71A76B",
"b. c #70AC6C",
"n. c #6DA170",
"m. c #74AC71",
"M. c #7BAC74",
"N. c #74A777",
"B. c #76B172",
"V. c #7BB376",
"C. c #7CB57A",
"Z. c #7BB87C",
"A. c #80B57D",
"S. c #83B97F",
"D. c #89BB7E",
"F. c #6F5883",
"G. c #785F89",
"H. c #725983",
"J. c #7B608B",
"K. c #7A6090",
"L. c #9779A8",
"P. c #769981",
"I. c #89B786",
"U. c #8BB786",
"Y. c #8DB787",
"T. c #86BA83",
"R. c #8AB887",
"E. c #8CB887",
"W. c #8ABC84",
"Q. c #8CBC89",
"!. c #8BB58F",
"~. c #90BF89",
"^. c #8FC183",
"/. c #8FC088",
"(. c #92C28A",
"). c #A8D59F",
"_. c #AAD6A1",
"`. c #B1DBA6",
"'. c #B6DCA9",
"]. c #B8DEAB",
"[. c #BFE3B3",
"{. c #C1E2B3",
/* pixels */
". . . . . . . . . . . . .   . . . . . . .   . . . . . . . . . . . . . . . . . . . . . . . . . . . . . . . . . . . . . . . . . . ",
". . . . . . . . . . . . . .   . . . . . .   . . . . . . . . . . .   . . . . . . . . . . . . . . . . . . . . . . . . . . . . . . ",
". . . X X . . . . . . . . . . . . . . . .     . . . . . . . . . . . . . . . . . . . . . . . . . . . . . . . . . .   . . . .   . ",
". . . X O . . . . . . . . . . . . . . . . . . . . . . . . . . . . . . . . . . . . . . . . . X . . . . . . . . . . # 2 X . . . . ",
". . . . X . . . . . . . . . . . . . . . . X . . . . . . . . . . X X . . . . . . . . . . . X $ X . . . . . . . . . H &.2 . . .   ",
". . . . . . . . . . . . . . . . . . . . . o X . . . . . . . . . & C @ . . . . . . . . . . X o X . . . . . . . . . 7 J & . . . . ",
". . . . . . . . X & @ . . . . . . . . . . % $ . . . . . . . . . N P % . . . . . . . . . . . . . . . . . . . . . . . . . . . . . ",
". . . . . . . X 5 =.C X .   . . . . . . . X X . . . . . . . . . o # X   . . . . . . . . . . . . . . . . . . . . . . . . . . . . ",
". . . . . . X 5 P J.=.5 . . . . . . . . . . . . . . . . . . . . X . . . . . . . @ X . . . . . . . . . . . . . . . . . . . . . . ",
". . . . . . # H H.L.F.I . . X X . X . . . . . . . . . . . . . . . . . . . . . X % o X . . . . . . . . . . . . . . . . . . . . . ",
". . . . . . X % F ,.K % . . . . X X . X . . . . . X X . X . . . . X . . . . . . X X . . . . . . . . . . . . . . . . . . . . . . ",
". . . . . X . . % L 5 . . X . . . . . . . . X . X $ % X . . . . . . . . X . . . . . . . . . . . . . . . . . . . . . X o X . . . ",
". . . . . . . X . . . . X . . . . . . . . X . . . * m X . . . . . . . . . . . . . . . . . . . . . . . . . . . . . . X o o . . . ",
". . . . . . . X . X . . . X . . . . . . X . . . . . . . . . X . X . . X X . . . X . . . . . . . . . . . . . . . . . . . . . . . ",
". . . . . . . X X . . X . X . . X X X . . . . . . X X . . . X X . . . . X . X . . . . X . X . . . . . . X X X . . . . . . . . . ",
". . X X X . X . X . . . X X X . X X . . . X . . X X X . X . X X X X . . X . X . . . . X o # X . . . . . X $ $ X . . . . . . . . ",
"X X o * = . . X X . . . X X X X $ = X X X . X . X X X X X X X X X . X X . X X X X . . . P &.7 X . . . . X X . . . . . . X . X . ",
"X . X $ $ X X X X . . . X X X X o $ X X X X X X X . X . X X X X X . X . X . X X . . X . B Z % X . . X X X . . . . . . X X . . . ",
"X X . . X X X X X X . . X X X X X X X X X X X . . . X X X X . X X X X o $ o X X X X . X . X . X . . X X X X . . . . X . X X . . ",
"X X . X . . . . . . . . . . . . . . . . . . . . . . . . . . . . . . . . . . . . . . . . . . . . . . . . . . . . . . . . . . . . ",
"X X . X . . . . . . . . . . . . . . . . . . . . . . . . . . . . . . . . . . . . . . . . . . . . . . . . . . . . . . . . . . X . ",
". X X X . . . X X . . . . . . . . . . . . . . . . . . . . . . . . . . . . . . . . . . . . . . . . . . . . . . . . . . . . . X . ",
"X X X X . . . o X . . . . . . . . . . . . . . . . . . . . . . . . . . . . . . . . . . . . X . . . . . . . . . 7 & . . . . . X X ",
"X X X X . . . . . . . . . . . . . . . . . . . . . . . . . . . . . # o . . . . .   .   . X $ X . . . . . . . X ..H . . . . . X X ",
"X X X X . . . . . . . . . . . . . . . . . . . $ X . . . . . . . X Z C . . . . . . . .   . X . . . . . . . . . 7 & . . . . . X X ",
"X X X X . . . . . . . . J 5 . . . . . . . . . o X . . . . . . . X 5 * . . . . . . . . . . . . . . . . . . . . . . . . . . . X . ",
"o X X X . . . . . . X 5 F.P % . . . . . . . . . . . . . . . . . . X . . . . . . X . . . . . . . . . . . . . .   . . . . . . o . ",
"X X X X . . . . . . 5 >.L.K.U . . X . . . X . . . . . . . . . . . . . . . . . X = X . . . . . . . . .   . . .   . . . . . . X X ",
"X o o o . . . . . . o 5 G.U % X . . . . . . . . . . . . . . . . . . . . .   . X X . . . . . . . . . . . . . . . . . . . . . X X ",
"o o o o . . . . . . . X P 7 X . X . . . X . . . . . o % o . . . . . . . . . . X . . . . . . . . . . . . . . . . X o . . . . X X ",
"o o o o . . . . . . . . . X X . . . . . . . . . . . @ * X . . . . . . . . . . . . . . . . . . . . . . . X . . . o $ . . . . X o ",
"o o o o . . . . . . X . . . . . . . . X X X X X X X X X X X X X X X X X X X o # # & 1 1 # X .   . . . . X . . . . . . . . . X X ",
"o o o o . . . X . . X . . . . . . . . # 6 6 6 6 6 6 6 6 6 6 6 6 6 6 6 6 6 8 S D T | -.-.O.S o . . . X o o . . . . . . . . . o o ",
"o o o o . X X % $ X X X . . . . . . X B G t A t A A A A A A A A A A A A A Y Y Y E ^ X.X.O. .1 . . . . X X . . . . . . . . X X o ",
"o o X o X X X % $ X X X X X . X . X o F f ; q < < < < < < < < < < < < < < < < < < < < ; E o.8 & X . X X . X X . X X . . . X o o ",
"o o o o X X . X X X X X X X X . X 1 1 T %.$.+.+.+.+.+.+.+.+.+.+.+.+.+.+.+.+.+.+.+.] ' ) %.<.;.:.8 X X X . X . X . X X . . X X o ",
"o $ O o X X X X X X X X X X X X 1 e q E P.!.I.W.E.E.E.Y.E.W.I.I.R.W.W.I.I.I.I.I.I.I.C.N.j.! t X.| X X X X . X X X X X . . . o O ",
"o O O O X X X X X X X X X X X X 1 e q d l.W.D.^.~.~.~.~.Q.W.W.W.W.W.W.W.W.W.W.W.W.T.V.m.h.W < ~ | X X X X X X X X X . . X X o o ",
"O O $ O X X X X X X X X X X X X 1 e < d l.W.^.).`.`.`.`._.W.A.C.C.V.V.V.V.C.C.C.C.V.B.B.h.) < ^ | o . X X X X X X X X X . X o o ",
"O O O O X X X X X X X o X X X X 1 w < d k.W.(.].{.{.{.[.`.M.g.p.p.p.a.a.a.p.p.p.p.a.v.C.N.) < ^ | X X X X X X X X X X X X X o o ",
"O $ o o X X X X X . o * o X X X % w < d k.W.(.`.'.'.'.'.).v.i.p.r.t.i.i.u.i.i.i.i.p.z.V.n.` < ^ | X X X X X X X o # X X X X o o ",
"O $ $ $ X X X . X X o $ X X X X % 9 < d k.W.W.W./.W.W.W.A.g.i.r.r.i.i.t.r.r.i.i.i.u.d.z.f.W < ^ | o X X X X X X N P X X X X o O ",
"$ $ $ O X X X X X X X X X o X X # w < d k.W.S.M.m.m.m.m.x.p.i.r.r.i.i.i.r.r.i.i.u.y.i.y.0.h < ^ | X o X X X X X N J X X X X O O ",
"O $ $ @ X X X X X X o X o o X X + 3 < d k.T.A.m.b.b.x.g.g.u.w.w.i.i.i.i.i.e.w.8.9.9.w.p.0.h < ^ | o X X X X X o o $ X X X . O O ",
"$ $ $ $ X o o o o X X o o o o o + 3 < d h.S.V.z.s.p.3.b b v v { y.i.i.i.i.8.n c v v 1.w.0.h < Q | @ o X o X o X X X X X X X O X ",
"$ $ $ $ X o X X o X o o o o o X $ > < d h.Z.B.g.p.y.@.k k k k b w.i.i.i.i.5.l k k x { y.0.h < R | @ o V C o X X X X X X X X O O ",
"$ $ $ $ O o o X X X o o X o o o + > < d h.Z.m.a.i.w.{ z k z z b y.p.i.i.p.5.c z z z { w.q.h ; R | o @ * * o X X o X X X o o O O ",
"$ $ $ $ o o O o $ $ o o o o o o + 3 < s q.g.g.i.u.u.{ k z z k b y.i.t.r.i.8.c k z z { u.7.g ; R | o o X o X X X o o o X o X O $ ",
"$ $ $ $ O o o o * m $ o o o o o $ 3 < p } 6.5.e.e.9.{ k k k k b w.y.e.r.u.5.x k k z { w.7.h ; Q | o o o o X o X X X o o o X $ O ",
"$ $ $ $ o o o o $ $ @ O o o o o $ w < y } 2.6.w.e.w.{ k k k k b w.i.i.r.i.5.l k k x { w.7.h ; ^ :.o o o o X X o X X X X o @ $ $ ",
"$ $ $ $ o o o o o o o o o o o o % 9 < y [ 2.6.w.u.w.{ b b b b { w.i.i.r.i.5.n b b b 2.w.7.h < ^ *.o o o o X o o X o X X X X $ $ ",
"$ $ $ $ O o o O @ O o O o O O o % w < y ] @.2.w.y.y.9.8.8.8.5.9.u.i.i.i.i.w.8.8.8.8.9.y.7.h ; ~ | @ o o o o o o o o o O o o $ $ ",
"$ $ $ $ O O O O $ O O $ $ O o $ % w < y _ { 2.w.y.y.u.u.u.u.u.u.i.e.i.i.i.e.e.y.i.u.u.y.7.h < R | @ o o o o O $ o o o o o o $ $ ",
"$ $ $ $ O O O O O O o O @ o $ @ 1 9 < y _ { @.w.y.y.u.e.e.e.e.e.e.u.u.i.i.i.i.e.i.y.u.y.7.g , ~ | $ O o o o o o o o o o O o $ $ ",
"$ $ $ $ O O O o O o o o $ = V $ 1 w < y _ { @.w.y.y.e.e.e.e.e.e.u.u.u.u.u.y.y.y.y.y.u.y.7.g < ~ | $ o o o o o o $ = O o o o $ $ ",
"$ $ $ $ O $ $ o O $ O $ $ = V $ 1 e < y _ { @.w.y.u.e.e.e.e.y.y.w.y.y.w.u.y.y.w.w.e.y.y.7.g < ~ | $ o O O o O O $ $ O o $ O $ $ ",
"$ $ $ $ o $ $ $ O O O $ $ $ $ $ 4 e < y ( [ { 3.7.4.4.4.4.4.4.4.4.4.4.4.4.4.4.3.3.6.6.3.#.j - ~ | $ O O o O $ O O o O O o o $ $ ",
"$ $ $ $ O O $ $ O $ $ O $ $ $ $ 4 e < y ( [ b b b b b b v b v v v v v b v v v v b b b _ / u , R | $ o O o O O O O @ O O o O $ $ ",
"$ $ $ $ O $ $ $ $ $ O O $ $ $ $ 1 e 9 < W ] _ v v v v v v v v v v _ _ _ _ _ _ _ _ x _ ` W s q R  .$ o O O O O O O O O O O O $ $ ",
"$ $ $ $ $ $ $ $ @ $ $ $ $ $ $ $ % 1 1 e d s a a i u u i u u u u i u a u a a a u a u a s E R D G Z $ @ O O O O $ O O O O O O $ $ ",
"$ $ $ $ $ $ $ $ % * $ $ O $ $ $ $ $ $ B 0 : - - - : - : : - - : - - - - - - - - - : : - f  .B 5 % $ $ $ $ O $ O o O O $ $ O $ $ ",
"$ $ $ $ $ $ $ $ m m % $ $ $ $ $ $ $ $ 5 D t A r r r r r w 9 w e e e r e r r r e e r r r R  .5 $ O $ $ $ O $ $ $ $ $ $ O O o $ $ ",
"$ $ $ $ $ $ $ $ $ $ $ $ $ $ $ $ $ $ $ % % 4 5 5 5 5 M C 5 1 % 1 1 1 4 4 4 4 1 4 % 4 4 4 5 5 $ $ $ $ O $ $ $ $ $ $ $ $ $ $ O $ $ ",
"$ $ $ $ $ $ $ $ $ $ $ $ $ $ $ $ $ $ $ $ $ $ $ $ $ $ % * $ $ $ $ $ $ $ $ $ $ $ $ $ $ $ $ $ $ $ $ $ $ $ $ O % V = $ $ $ $ $ $ $ $ "
};
