/* XPM */
static char *efdc9c82342b4a94b9d3ff34ca07e40275bMMwF0f2bDzWmb[] = {
/* columns rows colors chars-per-pixel */
"64 64 192 2 ",
"   c #171324",
".  c #1A1225",
"X  c #1C142B",
"o  c #1E1A2D",
"O  c #1F1530",
"+  c #1F1A31",
"@  c #20152E",
"#  c #211A2E",
"$  c #211633",
"%  c #241B33",
"&  c #2A1E36",
"*  c #261B39",
"=  c #291D3C",
"-  c #0D3624",
";  c #13322E",
":  c #143C2E",
">  c #1C3D2B",
",  c #1E2A36",
"<  c #143330",
"1  c #1B3633",
"2  c #163C31",
"3  c #1B3934",
"4  c #1B3738",
"5  c #262233",
"6  c #2A2235",
"7  c #222D36",
"8  c #2C233B",
"9  c #2D2D3B",
"0  c #242E38",
"q  c #32253D",
"w  c #322C3D",
"e  c #243336",
"r  c #223D34",
"t  c #273239",
"y  c #2B343B",
"u  c #243D3B",
"i  c #2B3D3C",
"p  c #283F37",
"a  c #35353F",
"s  c #16412C",
"d  c #124325",
"f  c #1C4532",
"g  c #1C4831",
"h  c #21402E",
"j  c #2B423C",
"k  c #294839",
"l  c #32483C",
"z  c #2B533C",
"x  c #2B5B3B",
"c  c #25503F",
"v  c #345B3E",
"b  c #2E653D",
"n  c #2E683E",
"m  c #336D3E",
"M  c #33723B",
"N  c #3A773E",
"B  c #2D1F40",
"V  c #2D2042",
"C  c #322343",
"Z  c #352A43",
"A  c #342549",
"S  c #392B49",
"D  c #2D3D43",
"F  c #343543",
"G  c #343944",
"H  c #393B47",
"J  c #3D3B4C",
"K  c #3A3749",
"L  c #3B3052",
"P  c #382952",
"I  c #42324D",
"U  c #453552",
"Y  c #4B3A5C",
"T  c #493856",
"R  c #503858",
"E  c #4B3C62",
"W  c #513E63",
"Q  c #2E4442",
"!  c #344644",
"~  c #3B424B",
"^  c #3D4B4C",
"/  c #394046",
"(  c #2D5441",
")  c #2C5942",
"_  c #3E5D4C",
"`  c #375944",
"'  c #2E6742",
"]  c #336445",
"[  c #3A6544",
"{  c #366F42",
"}  c #376C4A",
"|  c #3E7C44",
" . c #3F774C",
".. c #337140",
"X. c #3E6850",
"o. c #42444D",
"O. c #41494D",
"+. c #45514F",
"@. c #444555",
"#. c #484754",
"$. c #454C53",
"%. c #58445F",
"&. c #495856",
"*. c #51505E",
"=. c #41664E",
"-. c #436A4E",
";. c #42764D",
":. c #437C4C",
">. c #467B49",
",. c #426451",
"<. c #4B6756",
"1. c #436952",
"2. c #4E6C5A",
"3. c #4D6F54",
"4. c #51625A",
"5. c #457554",
"6. c #517E58",
"7. c #5A4463",
"8. c #554366",
"9. c #515560",
"0. c #6A547B",
"q. c #5A7B60",
"w. c #576A66",
"e. c #458247",
"r. c #45844A",
"t. c #4A864A",
"y. c #4B894D",
"u. c #4D8C53",
"i. c #508D56",
"p. c #578D5F",
"a. c #55845A",
"s. c #4E9053",
"d. c #559556",
"f. c #589656",
"g. c #579856",
"h. c #56955A",
"j. c #59955A",
"k. c #579959",
"l. c #5A9B5B",
"z. c #599C57",
"x. c #619E5E",
"c. c #5CA15E",
"v. c #5C8260",
"b. c #5D9E61",
"n. c #608068",
"m. c #67956C",
"M. c #699869",
"N. c #689667",
"B. c #6E9F70",
"V. c #739B73",
"C. c #5EA361",
"Z. c #64A462",
"A. c #6AA867",
"S. c #6CA56B",
"D. c #6EA86C",
"F. c #68A665",
"G. c #72AB6E",
"H. c #77AF70",
"J. c #77A77D",
"K. c #7DAA7C",
"L. c #77AA76",
"P. c #7BB274",
"I. c #7EB47A",
"U. c #7DB97B",
"Y. c #76B076",
"T. c #83B47D",
"R. c #84B97D",
"E. c #8BBC7F",
"W. c #6F5884",
"Q. c #725983",
"!. c #785F89",
"~. c #7B608D",
"^. c #9779A8",
"/. c #7BA381",
"(. c #84AE88",
"). c #84B183",
"_. c #85BB81",
"`. c #8BBC83",
"'. c #8AB888",
"]. c #93BD84",
"[. c #89C083",
"{. c #86C083",
"}. c #93C185",
"|. c #9AC58C",
" X c #95C088",
".X c #9BC891",
"XX c #A0C893",
"oX c #B2DAA3",
"OX c #BCDFAC",
"+X c #B6DBA8",
"@X c #BBE1AD",
"#X c #C7E6B5",
/* pixels */
". . . . . . . . . . . . .   . . . . . . .   . . . . . . . . . . . . . . . . . . . . . . . . . . . . . . . . . . . . . . . . . . ",
". . . . . . . . . . . . . .   . . . . . .   . . . . . . . . . . .   . . . . . . . . . . . . . . . . . . . . . . . . . . . . . . ",
". . . X X . . . . . . . . . . . . . . . .     . . . . . . . . . . . . . . . . . . . . . . . . . . . . . . . . . .   . . . .   . ",
". . . X O . . . . . . . . . . . . . . . . . . . . . . . . . . . . . . . . . . . . . . . . . X . . . . . . . . . . # 6 X . . . . ",
". . . . X . . . . . . . . . . . . . . . . X . . . . . . . . . . X X . . . . . . . . . . . X $ X . . . . . . . . . I %.6 . . .   ",
". . . . . . . . . . . . . . . . . . . . . X X . . . . . . . . . & Z @ . . . . . . . . . . X X X . . . . . . . . . w U & . . . . ",
". . . . . . . . X & @ . . . . . . . . . . % $ . . . . . . . . . C Y % . . . . . . . . . . . . . . . . . . . . . . . . . . . . . ",
". . . . . . . X 8 8.Z X .   . . . . . . . X X . . . . . . . . . X # X   . . . . . . . . . . . . . . . . . . . . . . . . . . . . ",
". . . . . . X 8 Y ~.8.8 . . . . . . . . . . . . . . . . . . . . X . . . . . . . @ X . . . . . . . . . . . . . . . . . . . . . . ",
". . . . . . # I Q.^.W.E . . X X . X . . . . . . . . . . . . . . . . . . . . . X % X X . . . . . . . . . . . . . . . . . . . . . ",
". . . . . . X % L 0.T % . . . . X X . X . . . . . X X . X . . . . X . . . . . . X X . . . . . . . . . . . . . . . . . . . . . . ",
". . . . . X . . % T 8 . . X . . . . . . . . X . X $ % X . . . . . . . . X . . . . . . . . . . . . . . . . . . . . . X X X . . . ",
". . . . . . . . . . . . X . . . . . . . . X . . . * B X . . . . . . . . . . . . . . . . . . . . . . . . . . . . . . X X X . . . ",
". . . . . . . X . X . . . X . . . . . . X . . . . . . . . . X . X . . X X . . . X . . . . . . . . . . . . . . . . . . . . . . . ",
". . . . . . . X X . . X . X . . X X X . . . . . . X X . . . X X . . . . X . X . . . . X . X . . . . . . X X X . . . . . . . . . ",
". . X X X . X . X . . . X X X . X X . . . X . . X X X . X . X X X X . . X . X . . . . X X # X . . . . . X $ $ X . . . . . . . . ",
". X X & = X X X X X X X . X X X $ = . X X X . . X . X X . . X X X X X X X X . . X X X . R 7.q . . . X X X X . . . X . . . . X . ",
"X . X $ $ . X X X X X X . X . X X $ . X X X X X X X X X X X . . X X . X X X X X . X X . Z S % . . X X X X . . X X X . X . . . . ",
"X X X . X . X X X X . X . X X X X X X X X X X X . X X X X X . X X X X X $ X . . X X X X . X X X . X X X X X . . . . X . X . . . ",
". X . X . X X X X X X X . X X X X X X X X X X X . X X X X X X X X . X = P $ X . X X X X X X X X . . X X X X . . . X X X X X . X ",
"X X X X X X X X X X . . X X X X . X X X X X X X X X X . X X X X X X X @ % X X X X X . X X X X X X . . X X . . X X X X X X X X X ",
"X X X X X X X X X X X X X X X X X X X X X X % % X X X X X X X X X X X X X X X X X X X X X X X X X . X X X X X . X X X X X X X X ",
"X X X X . X X X X X X X X X X X X X X X X X L E X X X X X X X X X X X X X X X X X X X X X X X X X X X X . X X X X X X X X . . X ",
"X X X X X . . . . . . . . . . . . . . . . . . . . . . . . . . . . . . . . . . . . . . . . . . . . . . . . . . . . . . . . . . . ",
"X X X X X . . . . . . . . . . . . . . . . . . . . . . . . . . . . . . . . .   . . .   . . . . . . . . . . . . . . . . . . . . X ",
"X X X X X . . . X X . . . . . . . . . . . . . . . . . . . . . . . . . . . . . . . . . . . . . . . . . . . . . . . . . . . . . X ",
"X X X X X . . . X X . . . . . . . . . . . . . . . . . . . . . . . . . . . . . . . . . . . . X . . . . . . . . . q & . . . . . X ",
"X X X X X . .   . . . . . . . . . . . . . . . . . . . . . . . . . . # X . . . . . . . . . X $ X . . . . . . . X %.I X . . . . X ",
"X X X X X . . . . . . . . . . . . . . . . . . . $ X . . . . . . . X S Z . . . . . . . . . . X . . . . . . . . . q & . . . . . X ",
"X X X X X . . . . . . X . U 8 . . . . . . . . . @ X . . . . . . . X 8 & . . . . . . . . . . . . . . . . . . . . . . . . . . . X ",
"X X X X X . . . . . . X 8 Q.Y $ . . . . . . . . . . . . . . . . . . . X . . . . . X . . . . . . . . . . . . . . .   . . . . . X ",
"X X X X X . . . . . . 8 0.^.~.W . . . . . X . . . . . X . . . . . . . . . . . . X = X . . . . . . . . . . . . . . . . . . .   X ",
"X X X X % . . . . . . X 8 !.W % X . . . . . X X X . . . . . . . X X . X . . . . X X . . . .   X . . . . . . . . . . . . . . . X ",
"X X @ X $ . . . . . . . X Y q . . X . . . . . X . X . X % X . . X . . X . . . . . . . . . . . X . . . . . . . . . X @ . . . . X ",
"X X @ X O . . . . . . . . . X X X . . . . . . . X . . X & X . . . . . . . . . . . . . . . . . . . . . . . . . . . X @ . . . . X ",
"X @ @ @ X . . . . . X X X . . . . . . . . . X . . . . . . . . . . . . . X . . . . . . . . . . . . . . . X X . . . . . . . . . @ ",
"@ @ O X X . . X . . . . X . . . . . . X X . . . . . X # % # o o o o o o o # 5 & X . . X . . X . . . . . X X . . . . . . . . . X ",
"O O O O O X . X % $ . X X X X . X X X X $ X X X X X 5 y t 7 7 7 , 7 7 7 0 t y F # X X X 8 I & X . X X X X X . . . . . . . . . X ",
"o $ O X X X . X % $ X . X X X X . X X X $ X . . X X 9 i 3 3 4 4 4 4 4 3 3 4 e / & X X X q T & . X X X X X X X X . X X . . . X O ",
"O O O O @ X X X X X X X . X X X X X X X X X X X 5 F +.<.=.X.1.1.1.=.=.=.=.=.,.&.O.o.8 X X # X X X X X X . . X . X . X X . . X X ",
"O $ X X O X X X X X X X X X X X X X X X X . X X 9 i _ V.).).).).T.T.T.).).).(.q.j ! F X X X X . X X X X X X . X X X X X . X X X ",
"O $ $ $ O X . X X X X X X X . X X . X X X X X o y r v V.`.].}.]. X].`.E.E._.'.6.> p F o X X X X X X X X X X X . X X . X X . X @ ",
"$ $ $ O X X X X X X X X X X X X X X X X X # w ~ 4.2.a.K.`.|.oXOXOX+X|._.`._.'.M.-.2.&.o.H & X X X X X X X X X . X . X X X X X O ",
"X $ $ $ @ X X X X X X X X X . X X X X X . F i j n.(.'.`.].XX@X#X#XOX|._._._.R.T.K./.1.j G 6 X X X X X X . . . X X X X X . X X O ",
"$ $ $ $ $ X X X X X X X * X X X X X X X X J i r v.`.`.`.`..XoX@XOXoX}.R.T.T.U.T.T.J.[ 3 t 5 X X X X X X X X X X X X # X X . X O ",
"$ $ $ $ $ X X X X X X X $ X X X X X X X X @.Q r v.'.`.[.`.`.`.`.`.E.H.D.D.D.D.G.I.J.[ > y 5 X X X X X X X X X X X C Y X X X X O ",
"O $ $ $ % X X X X X X X X X X X X X X $ % 9.Q h v.'.[.[.{.U.D.A.A.F.Z.b.b.b.l.Z.Y.L.[ > p 9 % # X X X X X X X X X q U X X X X O ",
"$ $ $ $ * X X X X X X X X X X X X X # F $.w.1.[ N.`.`.U.P.G.F.Z.Z.Z.C.c.l.l.z.x.D.S.>.v _ &.$.F $ X X X X X X X @ X $ X X X X $ ",
"$ $ $ $ % X X X X X X X X X X X X X & ~ ! ` m.S.P.`.R.G.Z.Z.Z.Z.C.c.C.c.z.z.z.z.z.l.j.p.5.k ! F $ X X X X X X X X X X X X X X O ",
"$ $ $ $ $ X X X X X @ X X X X X X X % ~ u z M.G.I.`.R.D.x.x.c.c.c.c.z.l.z.z.z.z.k.z.l.j.5.g i F $ X X X C S X X X X X X X X X @ ",
"$ $ $ $ $ X X X X X X O X X X X X X % ~ u z B.P.P.H.G.Z.l.l.l.l.l.l.h.s.d.l.h.l.d.u.d.h.:.g j F # X X X * = X X X X X X X X X $ ",
"$ $ $ $ $ X X X O $ $ O X X X X X o % ~ u ( J._.G.j.j.j.g.k.k.k.k.k.u.N e.h.h.h.| N u.h. .g j F $ X X X X X X X X X X X X X X $ ",
"$ $ $ $ $ X X X X = C $ X X X X X X % ~ u ( J.T.S.h.j.j.d.d.g.h.k.h.u.N e.h.h.h.| N u.h.;.f j G % % X X X X @ X X X X O X X @ % ",
"$ $ $ $ $ X X X X $ % $ X X X X X X % H u z N.D.x.h.h.h.k.d.d.g.d.z.d.t.y.h.j.h.t.r.i.h. .g j F 8 V @ X X X X X X @ X X X X X $ ",
"$ $ $ $ $ O @ @ @ @ X @ X X X X $ X % H u k a.f.d.d.d.d.k.h.h.d.k.k.f.d.h.j.k.k.d.d.d.h.;.f i H 8 = O $ X X X X X X X X X X X $ ",
"$ $ $ $ $ $ @ @ @ @ $ @ O X O O X X $ H j l 6.i.d.d.d.d.h.h.h.k.d.d.f.f.d.d.g.d.d.d.d.d.;.k ! H % X X X @ X X $ X X X X X X X $ ",
"$ $ $ $ $ O O O O O O O X $ O O O O $ w F $.` x :.d.d.d.d.h.h.d.d.f.f.d.d.k.d.h.j.d.t.>.3.^ H Z $ X X X X X X O @ X X X X X X $ ",
"$ $ $ $ $ O X O O $ O O O @ O O @ o O $ $ J u s } p.h.h.h.d.d.k.d.f.f.j.h.h.h.h.j.h.:.-.<.J % $ O X O X X X X X @ @ @ @ X O X $ ",
"$ $ $ $ $ X O O X O X X X $ = A $ O o $ O K u 1 c ] { :.r.r.r.r.r.r.r.r.e.e.r.:.} ] x z &.J $ O O X @ X X X X X @ $ B O X X X $ ",
"$ $ $ $ $ O O $ X X $ $ $ $ = A $ $ $ $ $ @.D 1 ; - s b m M M M M { ..m M M m m d - : 3 ^ J % $ O X O O O O X $ O $ % O X X X $ ",
"$ $ $ $ $ O $ O $ O O O $ $ $ @ $ $ $ F H $.u ; ; : f ) ] n n n ' ' ' ' n n n ] s ; < 3 ! O.#.J % $ O O O X $ X O O X O O X X $ ",
"$ $ $ $ $ $ O $ $ O $ O $ $ $ $ $ $ % ~ j u 1 ; ; < ; 2 2 2 : : 2 2 2 : : : : : ; ; < < 3 e ^ *.8 $ $ O O X O O O O X O O O $ $ ",
"$ $ $ $ $ O $ $ $ $ $ $ O $ $ $ $ $ % H y u 1 ; < ; ; ; ; ; ; ; ; ; ; ; ; ; ; ; ; < < ; 3 t ~ #.& $ O o O O O O X O O O $ O O $ ",
"$ $ $ $ $ $ $ $ $ $ $ O $ $ $ $ $ $ $ 8 9 $.u ; ; ; ; ; ; ; ; ; ; ; < < < < < ; < < ; 1 D F F Z % $ O $ O O O O X O X X O O $ $ "
};
