/* XPM */
static char *result[] = {
/* columns rows colors chars-per-pixel */
"64 64 161 2 ",
"   c #16361B",
".  c #1A1325",
"X  c #1D142C",
"o  c #1E1A2C",
"O  c #1F1530",
"+  c #20152F",
"@  c #21192D",
"#  c #211634",
"$  c #231A33",
"%  c #291F37",
"&  c #241739",
"*  c #261A39",
"=  c #291C3D",
"-  c #1F2A2C",
";  c #183B23",
":  c #1E3E2D",
">  c #1F3533",
",  c #1B3D36",
"<  c #1D3E38",
"1  c #262235",
"2  c #282435",
"3  c #262B33",
"4  c #2A2937",
"5  c #2B243B",
"6  c #2B2A3C",
"7  c #30243E",
"8  c #332E3E",
"9  c #233432",
"0  c #283033",
"q  c #233D35",
"w  c #2B3D37",
"e  c #243C39",
"r  c #2A3D3B",
"t  c #35393F",
"y  c #154326",
"u  c #174228",
"i  c #1A422E",
"p  c #1D4035",
"a  c #234234",
"s  c #264F36",
"d  c #2A4C37",
"f  c #25413A",
"g  c #2B423D",
"h  c #274F38",
"j  c #2D4B3A",
"k  c #32403B",
"l  c #255138",
"z  c #325E31",
"x  c #2D6038",
"c  c #2C1E43",
"v  c #2E2144",
"b  c #2E2B40",
"n  c #312245",
"m  c #352B42",
"M  c #392C47",
"N  c #34244B",
"B  c #392B48",
"V  c #2E3240",
"C  c #323342",
"Z  c #3B3547",
"A  c #343B44",
"S  c #3C3B4B",
"D  c #3B2A54",
"F  c #3F2D58",
"G  c #402D5A",
"H  c #463657",
"J  c #43305C",
"K  c #513C5B",
"L  c #4A3666",
"P  c #503C64",
"I  c #2C4241",
"U  c #314343",
"Y  c #36424A",
"T  c #3C434B",
"R  c #374A49",
"E  c #386740",
"W  c #3B6946",
"Q  c #3D714C",
"!  c #42454E",
"~  c #414B4B",
"^  c #43514E",
"/  c #444252",
"(  c #464C54",
")  c #494C57",
"_  c #485C52",
"`  c #4E515D",
"'  c #40704E",
"]  c #457C4A",
"[  c #446B52",
"{  c #4E645A",
"}  c #4B6C5A",
"|  c #467253",
" . c #467851",
".. c #4D7E57",
"X. c #4E7D5B",
"o. c #557F5A",
"O. c #564265",
"+. c #584568",
"@. c #525461",
"#. c #545964",
"$. c #595D66",
"%. c #5D4973",
"&. c #6D557A",
"*. c #705575",
"=. c #705579",
"-. c #5A6464",
";. c #5D7B67",
":. c #587168",
">. c #4B8254",
",. c #59845F",
"<. c #549757",
"1. c #599557",
"2. c #5B9957",
"3. c #57965B",
"4. c #5A955C",
"5. c #579859",
"6. c #5B9A5B",
"7. c #5D8663",
"8. c #5D8C63",
"9. c #5A9461",
"0. c #608B67",
"q. c #638C6C",
"w. c #659F64",
"e. c #6F9F70",
"r. c #64A164",
"t. c #6AA366",
"y. c #6CAA67",
"u. c #6DAA6B",
"i. c #75AE6E",
"p. c #6FA072",
"a. c #7DA77F",
"s. c #77A97F",
"d. c #7BA97F",
"f. c #7DBA7D",
"g. c #82BA77",
"h. c #81B77F",
"j. c #8AB77F",
"k. c #84B97D",
"l. c #89B87D",
"z. c #785A90",
"x. c #79608B",
"c. c #7E6491",
"v. c #7BA584",
"b. c #7AA881",
"n. c #86B684",
"m. c #89B682",
"M. c #85B981",
"N. c #8AB982",
"B. c #84B689",
"V. c #8CB989",
"C. c #93BE8A",
"Z. c #A080B0",
"A. c #96C18C",
"S. c #99C38C",
"D. c #9BC490",
"F. c #A4D398",
"G. c #B2DBA2",
"H. c #B5DDAA",
"J. c #B9E2AD",
"K. c #C7ECBA",
"L. c #CDF3BF",
/* pixels */
". . . . . . . . . . . . . . . . . . . . . . . . . . . . . . . . . . . . . . . . . . . . . . . . . . . . . . . . . . . . . . . . ",
". . . . . . . . . . . . . . . . . . . . . . . . . . . . . . . . . . . . . . . . . . . . . . . . . . . . . . . . . . . . . . . . ",
". . . . . . . . . . . . . . . . . . . . . . . . . . . . . . . . . . . . . . . . . . . . . . . . . . . . . . . . . . . . . . . . ",
". . . . . . . . . . . . . . . . . . . . . . . . . . . . . . . . . . . . . . . . . . . . . . . . . . . . . . . . . . . . . . . . ",
". . . . . . . . . . . . . . . . . . . . . . . . . . . . . . . . . . . . . . . . . . . . . X $ . . . . . . . . . . *.. . . . . . ",
". . . . . . . . . . . . . . . . . . . . . X . . . . . . . . . . . . . . . . . . . . . . . X $ . . . . . . . . . . *.2 . . . . . ",
". . . . . . . . . . . . . . . . . . . . . O O . . . . . . . . . 8 +.. . . . . . . . . . . . . . . . . . . . . . . . . . . . . . ",
". . . . . . . . . K @ . . . . . . . . . . O X . . . . . . . . . . @ . . . . . . . . . . . . . . . . . . . . . . . . . . . . . . ",
". . . . . . . @ 2 x.P 2 . . . . . . . . X . . . . . . . . . X . . . . . . . . . X . . . . . . . . . . . . . . . . . . . . . . . ",
". . . . . X . B =.Z.c.%.+ . . . . . . . . . . . . . . . . . . . . . . . . . X X = . . . . . . . . . . . . . . . . . . . . . . . ",
". . . X . . . # 8 c.O.% . . . . . X . . . X . . . . . . . . . . . . . X . . . . X . . . . . . . . . . . . . . . . . . . . . . . ",
". . . . . . . . @ O.M . . . X . . . X . . . . . X O & . . X . . . . . . X . . X . X . . X . . . . . . . . . . . . . . . . . . . ",
". . . . X . . . . . . . + . . X . X . . . . . . . = c . X . . X . X . . . X . . . . . . . . . . . . . . . . . . . . @ @ . . . . ",
". . . X . . . X X X . . . . . . . . . X X . X . . X X . . . . . . . . X . . . . . . . . X . . . . . . . . . . . . . . . . . . . ",
". . . . . . . . . . . X . X . X X . X . . . . X . . . . . . X . X . . . X . . . X X . X . X . . . . . . . + . . . . . . . . . . ",
"X . . X . . X . X . . . X . . . . . . . . X . . X X . X X X . . . X X . . X X . . . . . . . . X @ . . . @ % @ . . . . . . . . . ",
". . X $ N . . X . X . X . . X . X c . X . X . . . . X o 4 4 4 4 4 4 4 4 4 . X . X . X . =.K . X . @ . . . X . . X . . . . + . . ",
". X . + % . . X X . X . . X . X X O X . X . . X X X - 9 w g g e e q w t t X . . . X . . H m . . . . @ . . . . . X . . + . . . . ",
"X . . . . X . X X . . . X . X . X X . . . X X . . 4 j g d d s l h d d j ^ 6 @ X X . . . X . . X . + . . . X X . . . . . X . . @ ",
". X X X X . . X . X X X . X . X X . X X X X . O - { v.n.b.a.d.s.b.b.a.a.;.q ~ $ X . X X . X X . . . . . . X . . . X X . . . . . ",
"X . X . . . . X . X . . X X X . X X X X . X X 3 : X.n.n.V.m.m.N.M.M.M.B.o.; _ 8 $ X X . X X . X . + . X . . X . X . . . X . X . ",
". X . X X X X X X X X X . . X X X . X . X % 3 _ 7.p.V.F.G.G.C.m.l.k.h.M.e.,.;.~ ! 8 X X . X . . . . X X X X . X . X X X . X . X ",
"X X X X X . X X X X X X X X X X . X X X $ t f 7.V.n.C.J.L.K.D.j.l.k.k.M.h.B.q.f k ! @ X X X X . + . X . . . X X X X . X X . X . ",
"X X . X X X X + & X X . X X X O X X X . 1 I < 7.N.m.C.H.K.K.S.m.l.h.M.k.f.B.q.a g ( @ X X X . X . X X X X X X . X . X X . X . + ",
"X X . X X X X O & X X X X X X X X X X X 1 A p 7.N.N.N.S.S.S.M.l.j.l.A.g.g.M.q.f g ) $ X X . . X X X X X . X . X X . # = X X X . ",
". X X X X X X X X X X X X X X X X X X X 1 U p 7.N.N.N.N.N.M.M.M.l.N.l.l.g.k.0.a I ) $ X X X X X X . X . X X X X X X H &.X X X X ",
"X X X X X X X X X X X X X X X X X X X X % I p 7.k.f.l.l.M.N.M.M.N.M.l.l.g.g.0.a g ( $ X X X X X X . X X X X X X X X $ 7 X X X . ",
"X X O X X O X X X X X X X X X X X X X X 3 I p  .r.i.f.A.M.M.l.l.l.M.b.k.i.t...i g ) $ X X X X X X X X X X X X X X X X X X X X X ",
"X X O X X X X X O X X O X X X O X X X X 3 I p Q 6.u.f.g.M.M.l.l.f.f.f.f.y.4.| i g ( $ o X X X X X X X X X X X X X X X X X X X X ",
"X X X X X X X X O X O X O X X O O N O O 5 I < Q 6.9.r.r.w.t.i.i.r.r.w.w.6.9.' , g ` $ X O X O X X O X X = L O X X X X X X X X X ",
"X X O X X X X # X O X X X O O X O c X O 2 Y e [ w.4.1.5.1.6.y.y.2.<.3.4.4.9.| q U ` $ X X X X X X O X O # n X X X X + X X X X X ",
"O O O O # # X X O X O O O X X O O O O O 1 V Y [ z ] 4.1.1.5.6.r.2.5.3.9.] x } T C Z # X X O O X X X X X X X + X # X X X X X X X ",
"X O X O X D c o X X X # X # O X O X X O X $ 2 ~   E 9.3.5.5.3.1.1.1.9.8.W   } 6 o # X X O X O X X X X O X X X X X + X X X X O X ",
"O X # X X = # + # # X O # X O X X O O X O + $ T g [ >.>.>.>.>.>.>.>...>.} R -.5 O O X O X O O X = c X X # X # X + X + X O X X X ",
"O X # X # X X + X O + X X + O # O O O # X O $ 5 6 ^ a i i i p i u y i i :.$.C # X X X O O O X X = N # X O X X X X O X O X O O X ",
"O O X # X # # X X O # X + + X O O O X O O O X O # T e g r r r g g f f g ( 5 $ O O O O X O X O O + X X # X X # # O X O X O o X O ",
"O o O O X # X # O X # O X O O O O O O X O O X O O m S / ` @.@.@.#.@.` @.S O O X X O # X # X + # X X O O O X X X X X O X X O X O ",
"O O O O O O # X # O # O $ O O O O O O # # X # O O O $ # v v # # o # + X O O O O # X X # X # X X X # X O # X # X # # X O O X O X ",
"O O O O X # O X # X X O # O O O # X # X # O O $ O O O $ $ O O $ # @ $ o # X O O X # # X # X O O # X # X X X X O X # O X X O O X ",
"O O O O # O O $ X # = D # O O O O # O # O O O # $ $ # $ $ $ $ # $ $ O $ $ # # O O O O # X # O O $ X X # O # # X # X * = # X # O ",
"O # X $ O O # O O O c D O O O # # X X # # X $ m S A A A A V C C V C V V b V 5 # $ O O O O O O O O O X O O # X # X # # $ # X # X ",
"X # # + O O X # O O O O O O # O O $ # O + # $ A g p a a f f f f e e < f e < T $ O O # O O X O O O O # # O X # X # X # X O O X # ",
"# # # # # X # # O O O O O O O O # O # O # C C A < , < , p < < < < < < < < , R V 5 $ O # O # O O # X # X X # O O X O O # X # # X ",
"# X # X # # $ X O * O O O * O O O # O # $ 0 > > , , , , < < < < < < < < < < < 9 r 5 # O n c # O O # O O O O O O # O O X # # X # ",
"# O O # X # O # O O O O O * O * # O O # 1 A R r < < < , , , < < < < , , , , I U S 2 # X F N O # O # X # + O # O # X X # + X # X ",
"# # # O # # X # & O O * O O O O O # O O $ 5 b A < < , , , , , < , , , , , , R m 5 $ # # O # # O # O # # # O O O + # # O O # # # ",
"O # O # # c = # & O O O O O O O # # # # O # $ C V < < < < < < < e < e e > e T = # # # X # # O O O # X # # O # X # X X # X # # + ",
"# # # # # N = # O & O O * O O * O # # # # # # 5 b b b b v c c & 6 6 6 b v 5 b O # # # # # O O $ # O # # X # # # # # # # # O O O ",
"# O # # # # # # # # # # # # # # # # # # # # # # # c c & # # # # O O & O O O O & & O O O & O & O O # O O # O $ O O O # # O O # O ",
"# # O # # # # # # # # # # # # # # # # # # # # # # & & & & # # # O & O O & & O O O O & O O O O O # O O # O # O = F * # # O # O # ",
"$ # # # # # # # # # # # # # # # # # # & # # # # # # & # # # # # & O O & O & & O & O O & O O O & # O # # # # # = F & O O # O # # ",
"# # # # # # # # # # # # # # # # # # # # # # # & # # # # # # # # O & O & O O O & & O O & O & O & # # O # # O # # O # O # O # # O ",
"# # # # # # # # # # # # # # # G D & # # # # # # # # # # # # # # & O O & O & O O O O & O O & O O # # # # # # $ O # # # # # # # # ",
"# # # # # # # # # # # # # # # N c # # # & # # # # # # # & # # # O & & O & O & O & O & O O & & O # * N * # # # # O O # # # # # # ",
"# # # # # # & # # & # # # # # # & # # # # # # # & & # # # # # # O & O & O & O & O & O & & O & O # c L = # # # # # # # # # # # # ",
"# # # # # # # # # # # # & # # # # # # & # # # # # # # # # & # & O O & O & O & O & O & O O & O & # # * # # # # # # # # # # # # # ",
"O & & & & O & O & # O & # O & & # # # # # & & # & # # # & & # # & & # # & & & & O & O O & O & O & O & O O & & O # # # # # # # # ",
"& O O O & O & c & O & O & O & O & # & # # # # # # # & # # # & & # # # & & c & # & & & & O & O & O & O & & O O & # # & & # # # # ",
"O O & O O & L z.& O & & O & O & # # # # # # & # # # # & & # # # & & & # # # # # & O & O & O & O & O O O O & O O # # c N # # # # ",
"O & O & O & N J O & O & & O & O & # # & & # # & & & # & # # # & # O # # # & # # O & O & & c G & O & & O & O O O # # * * # & # # ",
"& & & O & # # & # # c O & & O & & # # # # # O & c & & & & # # # # # # & & & # # O & O & O N L c & O & O O & O c * O # # # * O # ",
"& O O & # & # # & # # O O O & O # # & # # & # & & & # & # # & # # & # # # # # & & & & O & O O O O & & & O & & O O O & # # # # # ",
"O & & & # # & # # # & # # # & O # & # & & # & # & # # # # & # # # & & # & # # # & O O & & O O & & O O & & O & & * O & # # & & O ",
"& & O O # # # # & # # # # c O & # & # # # # O & O & # & # # & & # # # & # & # & & O & & O & & & O & & O & O O O O & # # & O & # "
};
