/* XPM */
static char *result[] = {
/* columns rows colors chars-per-pixel */
"64 64 27 1 ",
"  c #BDBC75",
". c #C0BF77",
"X c #C1BF78",
"o c #C1C077",
"O c #C3C27A",
"+ c #C8C77F",
"@ c #CDCF7F",
"# c #CED07F",
"$ c #D1D37F",
"% c #CECF80",
"& c #CED080",
"* c #D2D482",
"= c #D6D884",
"- c #D8D987",
"; c #D4D588",
": c #D7D88A",
"> c #DBDC8E",
", c #DEDF91",
"< c #DEDF98",
"1 c #DFE092",
"2 c #DFE099",
"3 c #E0E193",
"4 c #E4E59D",
"5 c #E6E89F",
"6 c #E6E7A0",
"7 c #E7E9A1",
"8 c #E8E9A2",
/* pixels */
"@@@@@%+28888;&&&@6888888886O         47788%%%%&6688632111O      ",
"@@@@@@#58888&&+&@6888888886O         28888&%@%&6888833111O      ",
"@@@@@#@58888&&@&%6888886888O         48888&&@@%2888833111Oo     ",
"@@@@@#@78888&@&@@6888888886O         48888&&%@@6888833311O      ",
"&*;;;;;24552;;;&*45454<<22<X    oOoO 26544**;;;7888821311@OOOOOO",
"7888888=$$$$5888833333X         $==$;*=*==7878778888211111111111",
"8888888=$=*$888883,33,.         $====*====7888888888211111111111",
"7888888:$$**8888833,,,.         $$=$=====*7888888888111111111111",
"8887888=$=$$5888833,3,O.        $===*=====5878878888411111111111",
"5775775*####12422,,3,,OXXXXX    =$=$*:----455754522211411111>>>>",
">311111Oo        >,,3113<3,X    @###%6888733131     58887=$$$$$$",
",311111oo       .,3,,11133,X    @###%888871111,X  oo28887=$$$$$$",
",,11111O     .  .>,33,,33,,X    @@%%@688881111,.    28888-$$=$$$",
",,11111o   X    .>,,,3,3333X . .@@%%@688882131,X    58888-$$$$$-",
">,>>>,,%OOOOX XX.>>>,,3<333+++XX%***&67788,>>>>     >2515---$---",
"$$$$###88888&##&#@#@@@58888888888888888888               5888888",
"$$$$$$$37788*@#@%%#@%%47888885888888888888.              4888878",
"$$$$$$$58588*@@%@&%&@&67888888885888888878.   . .  o     4888888",
"$$$@$$#45878&%@%@%%&#&77558888588888588888O              2888888",
"@@@@###35555*;*;*;&;**2444432<2<4888844445+OOOOO....X%O%O4888824",
"       -11117888888888**$$$.    488883,33,33333&##&&5888888888%%",
"       >33337887888888=*$$$O    2888833,3133233&&##&5688888788&%",
"       >31117887888887=$$=$     48888313,33333,%###&2878888888&%",
"       >11117878878888=$$*$     268883111333333%##+&7888888888;%",
"   .Oo.>>>>>7888822222=*===X    ><<<<>>>>>33434**;;;5868822222;&",
"  ##&&######68888X    ,111,O.        +@@@@888888877878786;%%&&11",
"  @#&&&&&&&#58886X    >211,X    .    @%%*@488888887877888&&%&@>1",
"  ###&&&&&##78888X    >11,,O  .      @%@@@888887887888876;&%@@11",
"  ##&#&&&#&&68888X    >111,o         @%%%@788588877788888&##@&11",
"o #&&&&**;*;22222X   X>131,+OOOOOOOOX@&%&#455554444422222;&&&&11",
"###&&&#58888X         ,1,1133111333,,*&&##>3333$$$$*X    ,111111",
"##&&&&#58888X        X>11111111133,3,*%&##33331=$=$$     >111111",
"&&*&#*@88888O         >111131313,3313&&&#@,3313=$$=$.    >,3,113",
"$&#&&##48888.         >11,13113131133&@&#@,,11,$$$$$..   >331131",
"***&*&*58888OOoOOoOOOO:>>>>>>>>,33333**&*&3311,*@$$$o....:>>>>:>",
",,3333358888331,,33133*#&&#&&&#@48878311,3,>11,X    #$$*$&*$$*. ",
",333133588883333333,11&#&#&#%&%@48888332,3111,,X    #*$$$**#*$. ",
",33,313588883333333331*@&#&#&&@%487783111113133X    @$#*@#$$$$  ",
"3333333588583333333331*&&&&&%&@@487773113,,3333X . .##$$$*$$**. ",
"333333444444,>>,,33332*&*&******<4424,>>>>34333OOOOO##*#@*****OX",
"8888888*@@@@#@@@@688883333388888O    +@@#@7788888888*&$&#>333333",
"8888858*&@####%@&488773333358888O    @####7788788887*&#&*>111311",
"8888888*%&$%#&%#&788883323368885O    %&%&#7788778887*&#&#>131113",
"7888888*&%%%&&@#&688774333368888O    %&%&&7788878887*&##&,111,31",
"4555755****&****&444443333344224X    &**&*4444444444*****>111133",
"31,121133333,1,3,#@@@@48888O         >3,11@@@@@@@@@@>32331111158",
"333333113333<3131&&&@%68886O         >,,12#%@@#&&%@@,11111111388",
"3331331333>333131&&&&%78888X       . >3,11##@##@&@##>11113133358",
"11111111111113131&%@#&47787O       o >,311%&%%&&@&&&,11111333388",
"33>>;;>,1111>;:::@+@+@45555O oOoOOOOO>,132*******;;*>1111:;-;;<2",
"87o    >1111          >1111*&&@%>3313331,,3,3,35888833111.    . ",
"87O    >1111O      .  >1111&&&%@>311,1,,,31111,8888831111O      ",
"85O    >3>13.         ,,,1,*%&%@>11131111113,3,688883311,X      ",
"88X    >3313          >,11,*%%%%3311,,31111133,878853311,X .    ",
"21OXXXX;:>:>OoOooOOOOO>,>>>*****>1113>>>>>:;>;;44454,>>>>+OOOO.O",
"  @&&&&     #$$$#,211,&&###>,,,,1111,*@@@@..   ,3333*#@@#>1,,,,,",
"  @&&&#o.   @$$$$13131&&#&&>111111333$##&&     >333,*@@@#>1,1111",
"  @%###.    #$$$$13331*&@&&,333111333$##@#     ,333,*#@@#>,,1111",
"  %%#@#  .. ##$$*13333&&@@&,33333333,@##&@     ,33,,@@@@#,33111,",
"o.%&***O....$=***33333***&*3333333333@@@+@     >>>>>****$>3,13>>",
"3,31,13&*@#@,33,377888332115787775888O         @@###>311131311$$",
",333313*@#@#,333378888331135787878788O         %#@@#1311133131$@",
"1113323&@&@@1333378888333335888787888X         @&%@&>333313133@@",
"1131,33*&&#$>333378788333335788878888O         %&%&#>333133333&@"
};
